<?xml version="1.0" encoding="UTF-8" standalone="no"?>
<!DOCTYPE svg PUBLIC "-//W3C//DTD SVG 1.1//EN" "http://www.w3.org/Graphics/SVG/1.1/DTD/svg11.dtd">
<svg width="100%" height="100%" viewBox="0 0 445 445" version="1.1" xmlns="http://www.w3.org/2000/svg" xmlns:xlink="http://www.w3.org/1999/xlink" xml:space="preserve" xmlns:serif="http://www.serif.com/" style="fill-rule:evenodd;clip-rule:evenodd;stroke-linejoin:round;stroke-miterlimit:1.41421;">
    <g transform="matrix(1,0,0,1,-74.3231,-6.98128)">
        <g>
            <g>
                <g transform="matrix(1,0,0,1,0.698076,0.211285)">
                    <path d="M237.836,278.391C237.836,278.391 261.836,277.172 291.348,259.746C285.109,256.465 278.371,252.816 271.262,248.812C259.226,256.914 247.668,266.387 237.836,278.391Z" style="fill:rgb(255,105,0);fill-rule:nonzero;"/>
                </g>
                <g transform="matrix(1,0,0,1,0.698076,0.211285)">
                    <path d="M244.855,247.613C244.855,247.613 213.652,291.02 204.266,304.633L207.156,306.129C227.777,278.078 248.059,259.703 266.941,246.359C262.324,243.719 257.574,240.938 252.719,238.023C249.941,241.141 247.301,244.344 244.855,247.613Z" style="fill:rgb(255,105,0);fill-rule:nonzero;"/>
                </g>
                <g transform="matrix(1,0,0,1,0.698076,0.211285)">
                    <path d="M355.82,188.316C348.789,201.285 336.121,210.75 321.066,219.742C327.344,224.785 333.133,229.195 338.062,232.836C358.109,215.926 391.961,192.957 378.93,131.742C378.93,131.742 367.344,149.645 349.059,165.441L344.516,186.434L342.457,169.16L323.34,182.793L318.328,202.871L316.16,187.188C316.16,187.188 308.332,191.727 297.367,199.414C304.328,205.816 311.262,211.754 317.77,217.074C333.559,208.773 346.648,200.965 355.82,188.316Z" style="fill:rgb(255,105,0);fill-rule:nonzero;"/>
                </g>
                <g transform="matrix(1,0,0,1,0.698076,0.211285)">
                    <path d="M337.898,268.805L347.52,254.398C347.52,254.398 252.785,192.734 230.668,130.625C197.543,151.953 201.336,192.035 251.598,223.078C298.117,251.809 337.898,268.805 337.898,268.805Z" style="fill:rgb(255,105,0);fill-rule:nonzero;"/>
                </g>
                <g transform="matrix(1,0,0,1,0.698076,0.211285)">
                    <path d="M342.652,269.32C335.332,280.281 338.281,295.102 349.242,302.422C360.203,309.742 375.02,306.789 382.34,295.832L388.297,286.914L359.148,267.449L354.406,274.547L376.574,289.355L375.363,291.168C370.621,298.27 361.02,300.18 353.918,295.438C346.816,290.695 344.906,281.094 349.648,273.996L349.633,273.984L359.027,259.914C361.461,256.27 360.48,251.336 356.836,248.902L356.461,248.652L342.652,269.32Z" style="fill:rgb(255,105,0);fill-rule:nonzero;"/>
                </g>
                <g transform="matrix(1,0,0,1,0.698076,0.211285)">
                    <path d="M141.289,188.641L141.961,186.16L161.09,191.34L160.418,193.82L141.289,188.641Z" style="fill:rgb(255,105,0);fill-rule:nonzero;"/>
                </g>
                <g transform="matrix(1,0,0,1,0.698076,0.211285)">
                    <path d="M450.625,186.223L451.297,188.703L432.156,193.871L431.484,191.391L450.625,186.223Z" style="fill:rgb(255,105,0);fill-rule:nonzero;"/>
                </g>
                <g transform="matrix(1,0,0,1,0.698076,0.211285)">
                    <path d="M347.426,360.961L349.809,360.008L357.164,378.414L354.781,379.367L347.426,360.961Z" style="fill:rgb(255,105,0);fill-rule:nonzero;"/>
                </g>
                <g transform="matrix(1,0,0,1,0.698076,0.211285)">
                    <path d="M210.383,226.066L210.383,218.773L206.004,214.395L188.5,214.395L184.125,218.773L184.125,226.066L181.207,228.984L184.125,231.902L184.125,239.195L188.5,243.57L206.004,243.57L210.383,239.195L210.383,231.902L203.09,231.902L203.09,234.816L201.629,236.277L192.875,236.277L191.418,234.816L191.418,223.148L192.875,221.688L201.629,221.688L203.09,223.148L203.09,226.066L210.383,226.066Z" style="fill:rgb(33,39,33);fill-rule:nonzero;"/>
                </g>
                <g transform="matrix(1,0,0,1,0.698076,0.211285)">
                    <path d="M401.133,234.816L399.676,236.277L390.922,236.277L389.465,234.816L389.465,223.148L390.922,221.688L399.676,221.688L401.133,223.148L401.133,234.816ZM408.426,226.066L408.426,218.773L404.051,214.395L386.547,214.395L382.172,218.773L382.172,226.066L379.254,228.984L382.172,231.902L382.172,239.195L386.547,243.57L404.051,243.57L408.426,239.195L408.426,231.902L411.344,228.984L408.426,226.066Z" style="fill:rgb(33,39,33);fill-rule:nonzero;"/>
                </g>
                <g transform="matrix(1,0,0,1,0.698076,0.211285)">
                    <path d="M309.41,307.938L309.41,296.27L302.113,296.27L302.113,307.938L290.445,307.938L290.445,296.27L283.152,296.27L283.152,307.938L280.234,310.855L283.152,313.773L283.152,325.445L290.445,325.445L290.445,315.293L302.113,315.293L302.113,325.445L309.41,325.445L309.41,313.773L312.328,310.855L309.41,307.938Z" style="fill:rgb(33,39,33);fill-rule:nonzero;"/>
                </g>
                <g transform="matrix(1,0,0,1,0.698076,0.211285)">
                    <path d="M309.41,144.684L309.41,137.387L305.031,133.012L287.527,133.012L283.152,137.387L283.152,144.684L280.234,147.598L283.152,150.516L283.152,157.809L287.527,162.188L305.031,162.188L309.41,157.809L309.41,150.516L302.113,150.516L302.113,153.434L300.656,154.895L291.902,154.895L290.445,153.434L290.445,141.766L291.902,140.305L300.656,140.305L302.113,141.766L302.113,144.684L309.41,144.684Z" style="fill:rgb(33,39,33);fill-rule:nonzero;"/>
                </g>
                <g transform="matrix(1,0,0,1,0.698076,0.211285)">
                    <path d="M304.152,87.047C306.797,87.18 308.871,86.062 310.23,84.531L308.16,82.559C307.227,83.605 305.844,84.336 304.293,84.258C301.629,84.125 299.883,82.039 300.02,79.273C300.168,76.293 302.191,74.504 304.77,74.629C306.324,74.707 307.621,75.633 308.453,76.707L310.703,74.969C309.168,72.895 306.965,71.922 304.91,71.82C300.047,71.578 297.148,74.859 296.938,79.117C296.691,84.027 300.086,86.844 304.152,87.047ZM316.875,87.992L319.777,88.574L320.922,82.871L326.914,84.07L325.773,89.773L328.676,90.355L331.602,75.734L328.695,75.152L327.434,81.477L321.441,80.277L322.703,73.953L319.801,73.375L316.875,87.992ZM345.293,95.395L348.199,96.438L347.988,80.523L345.32,79.566L335.09,91.738L337.996,92.781L339.953,90.312L345.348,92.246L345.293,95.395ZM341.613,88.23L345.445,83.383L345.488,83.395L345.387,89.586L341.613,88.23ZM354.164,98.949L356.805,100.195L358.984,95.582L361.094,96.578C364.055,97.977 366.703,97.488 368.102,94.523C369.324,91.941 368.797,89.371 365.531,87.828L360.535,85.469L354.164,98.949ZM360.105,93.207L362.055,89.09L363.934,89.977C365.492,90.711 365.941,91.922 365.355,93.156C364.766,94.41 363.543,94.832 361.871,94.043L360.105,93.207ZM377.824,112.289L380.395,114L384.035,98.508L381.676,96.938L368.809,106.277L371.375,107.992L373.871,106.07L378.641,109.25L377.824,112.289ZM375.984,104.449L380.879,100.672L380.91,100.695L379.32,106.676L375.984,104.449ZM394.34,125.293L394.941,118.727C396.816,119.449 398.641,119.047 400.16,117.195C401.969,114.984 402.066,112.348 399.289,110.074L394.918,106.492L385.469,118.027L387.727,119.879L390.961,115.93L392.293,117.02L391.641,123.086L394.34,125.293ZM395.512,110.375L397.203,111.758C398.535,112.848 398.711,114.16 397.844,115.215C396.965,116.289 395.617,116.375 394.203,115.219L392.609,113.914L395.512,110.375ZM406.73,138.789L408.289,132.383C410.043,133.375 411.906,133.242 413.68,131.633C415.793,129.715 416.277,127.121 413.863,124.465L410.066,120.281L399.027,130.301L400.988,132.461L404.766,129.031L405.926,130.305L404.391,136.211L406.73,138.789ZM410.086,124.207L411.555,125.82C412.711,127.098 412.691,128.422 411.68,129.336C410.652,130.27 409.305,130.16 408.078,128.805L406.695,127.281L410.086,124.207ZM416.293,152.152L418.008,154.723L427.32,141.816L425.746,139.457L410.277,143.141L411.992,145.707L415.031,144.891L418.215,149.66L416.293,152.152ZM417.605,144.207L423.574,142.598L423.598,142.633L419.832,147.543L417.605,144.207ZM421.195,160.359L425.715,168.824L428.031,167.59L424.906,161.734L435.746,155.953L434.352,153.34L421.195,160.359ZM261.496,90.793L271.277,88.832L270.762,86.258L263.82,87.648L263.141,84.25L268.352,83.207L267.84,80.656L262.629,81.699L261.93,78.195L268.438,76.895L267.918,74.301L258.57,76.172L261.496,90.793ZM280.184,82.332L286.516,81.703L286.262,79.152L279.93,79.781L280.184,82.332ZM170.953,161.09C172.199,158.754 172.074,156.402 171.27,154.52L168.602,155.547C169.148,156.84 169.223,158.402 168.488,159.773C167.234,162.125 164.602,162.816 162.156,161.512C159.527,160.105 158.77,157.512 159.984,155.234C160.715,153.863 162.109,153.082 163.434,152.789L162.82,150.012C160.289,150.516 158.473,152.094 157.504,153.91C155.207,158.207 156.945,162.227 160.703,164.234C165.039,166.547 169.035,164.684 170.953,161.09ZM181.594,144.504C184.207,140.977 183.641,136.586 179.977,133.879C176.316,131.164 171.934,131.895 169.324,135.422C166.637,139.055 167.383,143.445 170.945,146.082C174.492,148.703 178.91,148.133 181.594,144.504ZM179.398,142.852C177.797,145.012 174.945,145.227 172.77,143.617C170.594,142.004 169.965,139.215 171.562,137.055C173.09,134.996 175.891,134.668 178.152,136.34C180.398,138.004 180.922,140.793 179.398,142.852ZM198.797,124.785L192.312,123.59C193.207,121.789 192.965,119.934 191.262,118.254C189.223,116.25 186.609,115.918 184.09,118.477L180.129,122.504L190.758,132.961L192.805,130.879L189.168,127.301L190.375,126.074L196.355,127.27L198.797,124.785ZM184.047,122.266L185.578,120.707C186.785,119.48 188.105,119.426 189.082,120.383C190.066,121.352 190.035,122.703 188.754,124.008L187.309,125.473L184.047,122.266ZM207.609,117.66C209.496,116.117 210.852,113.297 208.789,110.777C206.969,108.551 204.965,109.32 202.328,110.176C200.586,110.73 199.699,110.941 199.133,110.215C198.535,109.484 198.773,108.582 199.57,107.93C200.285,107.344 201.41,106.996 203.02,107.008L202.926,104.207C201.035,104.18 199.262,104.734 197.844,105.922C195.793,107.656 195.324,110.398 196.84,112.254C198.621,114.43 201.023,113.82 203.27,113.016C205.051,112.344 205.922,112.148 206.613,112.992C207.199,113.707 207.059,114.664 205.953,115.566C205.043,116.312 203.578,116.777 201.895,116.473L201.91,119.281C204.137,119.551 206.113,118.883 207.609,117.66ZM225.609,105.309L228.262,103.723L215.832,93.785L213.398,95.238L216.312,110.871L218.961,109.285L218.297,106.211L223.215,103.266L225.609,105.309ZM217.742,103.605L216.426,97.562L216.461,97.543L221.184,101.547L217.742,103.605ZM234.184,100.848L236.859,99.582L230.488,86.102L227.812,87.367L234.184,100.848ZM254.891,92.594L249.57,88.699C251.156,87.461 251.746,85.688 250.938,83.434C249.973,80.746 247.762,79.309 244.383,80.52L239.066,82.426L244.098,96.461L246.844,95.477L245.121,90.672L246.742,90.09L251.609,93.77L254.891,92.594ZM242.699,83.914L244.754,83.176C246.375,82.594 247.59,83.117 248.051,84.402C248.52,85.707 247.902,86.91 246.18,87.527L244.242,88.223L242.699,83.914Z" style="fill:rgb(33,39,33);"/>
                </g>
                <g transform="matrix(1,0,0,1,0.698076,0.211285)">
                    <path d="M156.09,300.859L158.445,305.27C160.695,309.492 164.746,310.617 168.621,308.551C172.512,306.477 173.793,302.363 171.57,298.195L169.246,293.84L156.09,300.859ZM159.781,302.199L168.285,297.66L169.266,299.496C170.527,301.867 169.641,304.531 167.176,305.844C164.77,307.129 162.035,306.422 160.672,303.867L159.781,302.199ZM180.348,312.301L179.172,310.535L173.895,312.461L175.457,314.805L180.348,312.301ZM178.602,334.035L180.559,336.426L188.566,322.672L186.77,320.48L171.734,325.652L173.691,328.043L176.637,326.934L180.27,331.367L178.602,334.035ZM179.133,326L184.918,323.816L184.941,323.848L181.676,329.105L179.133,326ZM187.984,343.605L190.164,345.578L198.395,336.488L201.461,339.262L203.238,337.301L194.938,329.789L193.164,331.75L196.215,334.512L187.984,343.605ZM198.992,353.148L201.375,354.91L204.836,350.234L209.746,353.867L206.285,358.547L208.668,360.309L217.535,348.32L215.156,346.559L211.32,351.742L206.406,348.105L210.242,342.926L207.863,341.164L198.992,353.148ZM215.98,364.707L224.215,369.633L225.562,367.379L219.867,363.973L226.172,353.43L223.629,351.91L215.98,364.707ZM239.879,358.535L242.324,359.547L245.918,357.672L243.254,356.594L239.879,358.535ZM231.125,372.707L240.344,376.523L241.348,374.098L234.809,371.391L236.133,368.191L241.043,370.223L242.039,367.816L237.129,365.785L238.496,362.484L244.625,365.023L245.637,362.578L236.828,358.934L231.125,372.707ZM250.738,379.992L253.551,380.848L257.117,369.113L261.078,370.316L261.847,367.785L251.137,364.531L250.367,367.062L254.305,368.258L250.738,379.992ZM264.965,383.578L267.871,384.16L270.793,369.535L267.887,368.957L264.965,383.578ZM280.848,386.133C283.27,386.371 286.223,385.336 286.543,382.098C286.828,379.234 284.867,378.363 282.398,377.105C280.77,376.27 279.996,375.793 280.109,374.875C280.199,373.934 281.008,373.465 282.031,373.566C282.949,373.656 283.992,374.203 285.125,375.352L287.039,373.305C285.715,371.949 284.07,371.09 282.23,370.926C279.551,370.703 277.281,372.312 277.043,374.695C276.766,377.496 278.898,378.762 281.055,379.777C282.793,380.562 283.547,381.039 283.438,382.125C283.348,383.047 282.574,383.621 281.152,383.48C279.98,383.367 278.617,382.66 277.637,381.254L275.668,383.254C277.055,385.016 278.926,385.941 280.848,386.133ZM305.891,371.758L301.402,380.281L301.363,380.281L296.715,371.836L293.73,371.859L293.855,386.77L296.797,386.746L296.719,377.484L296.762,377.484L300.445,383.879L302.359,383.863L305.938,377.41L305.98,377.406L306.055,386.668L308.977,386.645L308.852,371.734L305.891,371.758ZM317.434,385.293L327.297,383.816L326.91,381.223L319.91,382.266L319.398,378.84L324.652,378.055L324.27,375.48L319.016,376.266L318.488,372.734L325.051,371.754L324.66,369.137L315.23,370.547L317.434,385.293ZM138.969,223.152C138.84,225.797 139.957,227.871 141.484,229.227L143.461,227.16C142.414,226.227 141.684,224.844 141.758,223.293C141.891,220.629 143.977,218.883 146.746,219.02C149.723,219.168 151.516,221.191 151.387,223.77C151.309,225.32 150.383,226.621 149.312,227.449L151.051,229.703C153.125,228.168 154.094,225.965 154.195,223.91C154.438,219.043 151.156,216.148 146.898,215.934C141.988,215.691 139.172,219.086 138.969,223.152ZM139.16,236.656L139.637,246.242L142.258,246.113L141.93,239.484L154.199,238.875L154.051,235.918L139.16,236.656ZM141.707,259.457C142.461,263.227 145.305,264.926 149.117,264.164L157.684,262.453L157.102,259.551L148.719,261.223C146.395,261.688 144.777,260.684 144.426,258.914C144.043,256.996 145.414,255.609 147.516,255.191L155.895,253.516L155.316,250.613L146.75,252.324C142.754,253.121 141.008,255.957 141.707,259.457ZM155.148,278.773L155.172,278.766C156.25,280.152 157.734,280.34 159.02,279.945C161.289,279.258 162,277.262 161.078,274.23L159.516,269.086L145.25,273.422L147.043,279.328C147.992,282.441 150.121,283.461 152.395,282.773C154.281,282.199 155.25,280.762 155.148,278.773ZM157.867,272.617L158.43,274.465C158.93,276.113 158.473,276.996 157.469,277.301C156.305,277.656 155.469,276.789 155.129,275.664L154.512,273.637L157.867,272.617ZM149.277,277.727L148.582,275.438L152.242,274.324L152.941,276.637C153.457,278.324 152.98,279.367 151.855,279.707C150.633,280.082 149.738,279.234 149.277,277.727Z" style="fill:rgb(33,39,33);"/>
                </g>
                <g transform="matrix(1,0,0,1,0.698076,0.211285)">
                    <path d="M449.086,266.125L449.785,263.332L435.793,259.816L435.234,262.035L437.207,267.035L439.594,266.227L438.434,263.445L449.086,266.125ZM437.562,248.41C437.129,251.297 438.73,253.809 441.555,254.23C444.461,254.668 446.418,252.941 446.773,250.574C446.91,249.641 446.824,248.672 446.504,247.816L446.527,247.797C448.457,248.957 449.418,250.906 449.738,253.605L452.148,253.117C451.965,248.504 448.758,244.82 444.062,244.117C440.637,243.605 438.004,245.441 437.562,248.41ZM442.008,251.477C440.805,251.297 439.906,250.207 440.121,248.754C440.328,247.383 441.645,246.516 443.43,246.785L443.617,246.812C444.238,247.5 444.664,248.496 444.516,249.473C444.301,250.926 443.277,251.664 442.008,251.477ZM438.723,238.004L441.305,238.133L441.594,232.305L452.977,237.598L453.645,234.793L441.035,229.141L439.168,229.051L438.723,238.004ZM443.727,217.211C443.773,218.152 444.051,219.086 444.531,219.84L444.531,219.859C442.434,219.125 441.152,217.441 440.289,214.898L438.047,215.832C439.109,220.32 442.973,223.219 447.652,222.984C451.113,222.816 453.309,220.477 453.16,217.52C453.016,214.562 450.973,212.414 448.145,212.555C445.164,212.703 443.609,214.797 443.727,217.211ZM450.598,217.562C450.668,218.969 449.551,220.16 447.77,220.246L447.559,220.258C446.816,219.707 446.203,218.812 446.156,217.824C446.082,216.379 446.961,215.41 448.219,215.348C449.434,215.285 450.531,216.18 450.598,217.562ZM381.84,361.332L385.996,358.559C389.98,355.902 390.699,351.762 388.266,348.109C385.816,344.441 381.602,343.566 377.672,346.191L373.566,348.93L381.84,361.332ZM382.809,357.527L377.461,349.508L379.191,348.355C381.426,346.867 384.164,347.488 385.715,349.812C387.23,352.082 386.793,354.871 384.383,356.48L382.809,357.527ZM398.348,349.066L405.742,342.371L403.98,340.426L398.734,345.176L396.406,342.609L400.344,339.043L398.598,337.109L394.66,340.676L392.262,338.031L397.184,333.578L395.406,331.617L388.34,338.016L398.348,349.066ZM411.199,336.691L413.156,334.527L409.375,331.102L410.941,329.375C413.141,326.949 413.438,324.273 411.008,322.074C408.891,320.156 406.277,319.914 403.855,322.59L400.148,326.684L411.199,336.691ZM407.43,329.34L404.051,326.281L405.445,324.742C406.602,323.465 407.895,323.387 408.906,324.301C409.934,325.234 409.98,326.523 408.742,327.895L407.43,329.34ZM426.391,317.906C428.523,314.711 427.715,311.496 424.48,309.34L417.215,304.492L415.57,306.953L422.68,311.699C424.656,313.016 425.086,314.867 424.082,316.367C423,317.992 421.047,318.004 419.266,316.816L412.156,312.074L410.512,314.539L417.781,319.383C421.172,321.645 424.41,320.879 426.391,317.906ZM433.844,305.457L435.238,302.844L422.086,295.824L420.691,298.434L433.844,305.457ZM441.031,291.062C441.965,288.812 441.828,285.688 438.82,284.441C436.16,283.34 434.762,284.965 432.84,286.965C431.57,288.281 430.887,288.883 430.043,288.512C429.168,288.148 428.953,287.242 429.348,286.289C429.703,285.438 430.527,284.598 431.953,283.848L430.547,281.422C428.867,282.293 427.566,283.621 426.879,285.336C425.891,287.836 426.773,290.473 428.984,291.391C431.582,292.469 433.414,290.793 435.012,289.023C436.266,287.59 436.941,287.004 437.949,287.422C438.801,287.777 439.129,288.684 438.582,290.004C438.133,291.09 437.062,292.191 435.434,292.723L436.777,295.188C438.863,294.371 440.293,292.848 441.031,291.062Z" style="fill:rgb(33,39,33);"/>
                </g>
            </g>
        </g>
    </g>
</svg>
