<?xml version="1.0" encoding="UTF-8" standalone="no"?>
<!DOCTYPE svg PUBLIC "-//W3C//DTD SVG 1.1//EN" "http://www.w3.org/Graphics/SVG/1.1/DTD/svg11.dtd">
<svg width="100%" height="100%" viewBox="0 0 291 247" version="1.1" xmlns="http://www.w3.org/2000/svg" xmlns:xlink="http://www.w3.org/1999/xlink" xml:space="preserve" xmlns:serif="http://www.serif.com/" style="fill-rule:evenodd;clip-rule:evenodd;stroke-linejoin:round;stroke-miterlimit:2;">
    <g transform="matrix(1.04886,0,0,1.27015,-24.2403,-31.904)">
        <rect x="23.111" y="25.118" width="277.444" height="194.177" style="fill:none;"/>
        <clipPath id="_clip1">
            <rect x="23.111" y="25.118" width="277.444" height="194.177"/>
        </clipPath>
        <g clip-path="url(#_clip1)">
            <g transform="matrix(0.953416,0,0,0.787306,-215.555,-118.709)">
                <path d="M287.262,303.508L287.262,294.275L281.721,288.734L259.561,288.734L254.021,294.275L254.021,303.508L250.327,307.202L254.021,310.895L254.021,320.129L259.561,325.669L281.721,325.669L287.262,320.129L287.262,310.895L278.028,310.895L278.028,314.589L276.181,316.435L265.101,316.435L263.255,314.589L263.255,299.815L265.101,297.968L276.181,297.968L278.028,299.815L278.028,303.508L287.262,303.508Z" style="fill:white;fill-opacity:0.6;fill-rule:nonzero;"/>
                <path d="M528.746,314.589L526.899,316.436L515.818,316.436L513.973,314.589L513.973,299.815L515.818,297.968L526.899,297.968L528.746,299.815L528.746,314.589ZM537.979,303.508L537.979,294.275L532.439,288.735L510.279,288.735L504.739,294.275L504.739,303.508L501.046,307.202L504.739,310.896L504.739,320.129L510.279,325.669L532.439,325.669L537.979,320.129L537.979,310.896L541.673,307.202L537.979,303.508Z" style="fill:white;fill-opacity:0.6;fill-rule:nonzero;"/>
                <path d="M412.626,407.156L412.626,392.383L403.393,392.383L403.393,407.156L388.618,407.156L388.618,392.383L379.385,392.383L379.385,407.156L375.691,410.849L379.385,414.543L379.385,429.317L388.618,429.317L388.618,416.467L403.393,416.467L403.393,429.317L412.626,429.317L412.626,414.543L416.319,410.849L412.626,407.156Z" style="fill:white;fill-opacity:0.6;fill-rule:nonzero;"/>
                <path d="M412.626,200.479L412.626,191.245L407.086,185.705L384.925,185.705L379.385,191.245L379.385,200.479L375.691,204.172L379.385,207.866L379.385,217.099L384.925,222.64L407.086,222.64L412.626,217.099L412.626,207.866L403.393,207.866L403.393,211.559L401.545,213.406L390.465,213.406L388.618,211.559L388.618,196.785L390.465,194.938L401.545,194.938L403.393,196.785L403.393,200.479L412.626,200.479Z" style="fill:white;fill-opacity:0.6;fill-rule:nonzero;"/>
                <path d="M322.016,369.751C322.016,369.751 352.399,368.207 389.763,346.146C381.862,341.992 373.331,337.373 364.335,332.306C349.096,342.563 334.463,354.554 322.016,369.751Z" style="fill:rgb(255,105,0);fill-rule:nonzero;"/>
                <path d="M330.904,330.789C330.904,330.789 291.403,385.737 279.518,402.969L283.18,404.865C309.282,369.353 334.961,346.092 358.865,329.198C353.019,325.856 347.004,322.337 340.859,318.644C337.344,322.595 333.998,326.649 330.904,330.789Z" style="fill:rgb(255,105,0);fill-rule:nonzero;"/>
                <path d="M471.381,255.721C462.481,272.135 446.443,284.119 427.384,295.505C435.329,301.888 442.661,307.472 448.902,312.079C474.277,290.672 517.133,261.596 500.634,184.096C500.634,184.096 485.968,206.763 462.824,226.761L457.068,253.336L454.464,231.469L430.261,248.728L423.919,274.146L421.171,254.288C421.171,254.288 411.262,260.034 397.382,269.769C406.193,277.875 414.97,285.388 423.213,292.124C443.197,281.615 459.772,271.73 471.381,255.721Z" style="fill:rgb(255,105,0);fill-rule:nonzero;"/>
                <path d="M448.694,357.614L460.875,339.379C460.875,339.379 340.944,261.313 312.944,182.683C271.01,209.683 275.811,260.429 339.441,299.727C398.33,336.097 448.694,357.614 448.694,357.614Z" style="fill:rgb(255,105,0);fill-rule:nonzero;"/>
                <path d="M454.711,358.269C445.444,372.143 449.179,390.903 463.054,400.17C476.929,409.437 495.689,405.702 504.955,391.828L512.492,380.542L475.596,355.897L469.592,364.885L497.655,383.629L496.12,385.926C490.117,394.915 477.963,397.335 468.974,391.332C459.985,385.328 457.565,373.173 463.569,364.185L463.546,364.169L475.441,346.359C478.524,341.743 477.282,335.502 472.666,332.419L472.19,332.1L454.711,358.269Z" style="fill:rgb(255,105,0);fill-rule:nonzero;"/>
            </g>
        </g>
    </g>
</svg>
