<?xml version="1.0" standalone="no"?>
<!DOCTYPE svg PUBLIC "-//W3C//DTD SVG 1.1//EN" "http://www.w3.org/Graphics/SVG/1.1/DTD/svg11.dtd" >
<svg xmlns="http://www.w3.org/2000/svg">
<metadata></metadata>
<defs>
<font id="grota_sans_alt_boldbold" horiz-adv-x="1177" >
<font-face units-per-em="2048" ascent="1536" descent="-512" />
<missing-glyph horiz-adv-x="366" />
<glyph unicode="&#xfb01;" horiz-adv-x="1294" d="M39 795v221h135v114q0 90 19.5 156.5t64.5 118t126 78t198 26.5q40 0 81 -4.5t61 -8.5l21 -5v-231q-61 18 -122 18q-87 0 -127.5 -37.5t-40.5 -116.5v-108h260v-221h-260v-795h-281v795h-135zM874 1325q0 70 49 118t121 48q71 0 120.5 -48t49.5 -118q0 -71 -49.5 -118.5 t-120.5 -47.5q-72 0 -121 47t-49 119zM909 203v813h281v-735q0 -34 14.5 -49t46.5 -15q10 0 22 2t19 4l6 2v-213q-47 -22 -153 -22q-115 0 -175.5 53.5t-60.5 159.5z" />
<glyph unicode="&#xfb02;" horiz-adv-x="1302" d="M39 795v221h135v114q0 90 19.5 156.5t64.5 118t126 78t198 26.5q40 0 81 -4.5t61 -8.5l21 -5v-231q-61 18 -122 18q-87 0 -127.5 -37.5t-40.5 -116.5v-108h260v-221h-260v-795h-281v795h-135zM877 203v1300h280v-1227q0 -59 62 -59q10 0 21.5 2t17.5 4l6 2v-213 q-46 -22 -152 -22q-232 0 -235 213z" />
<glyph horiz-adv-x="0" />
<glyph horiz-adv-x="682" />
<glyph unicode=" "  horiz-adv-x="366" />
<glyph unicode="&#x09;" horiz-adv-x="366" />
<glyph unicode="&#xa0;" horiz-adv-x="366" />
<glyph unicode="!" horiz-adv-x="460" d="M86 1499h293l-62 -1118h-176zM92 121q0 57 39 97t96 40q58 0 98 -40t40 -97t-40 -97t-98 -40q-57 0 -96 40t-39 97z" />
<glyph unicode="&#x22;" horiz-adv-x="727" d="M63 1722h242l-47 -567h-156zM426 1722h240l-48 -567h-153z" />
<glyph unicode="#" horiz-adv-x="1564" d="M63 373v200h232l115 306h-258v200h335l154 404h272l-155 -404h289l153 404h270l-153 -404h188v-200h-266l-115 -306h293v-200h-370l-142 -373h-270l141 373h-289l-141 -373h-268l141 373h-156zM565 573h289l115 306h-287z" />
<glyph unicode="$" horiz-adv-x="1169" d="M57 422l279 45q0 -84 43.5 -144.5t134.5 -78.5v383q-42 13 -69 22t-68 25t-68 30t-61.5 35.5t-57 44t-47 54t-38 66t-22.5 79t-9 94.5q0 70 24 137t71 126t128 100.5t184 54.5v102h224v-106q197 -30 297 -149t100 -300l-283 -47q0 90 -39 151.5t-118 84.5v-371 q56 -20 90 -33t86.5 -37.5t85 -48t71 -60t60 -77.5t36.5 -96.5t15 -120.5q0 -155 -95.5 -262t-305.5 -135v-115h-224v109q-111 11 -195 53.5t-132.5 104.5t-72.5 133t-24 147zM379 1071q0 -54 35 -90.5t100 -65.5v320q-68 -14 -101.5 -58t-33.5 -106zM662 248 q135 31 135 170q0 55 -34.5 90.5t-100.5 64.5v-325z" />
<glyph unicode="%" horiz-adv-x="1396" d="M61 1141q0 187 63.5 272.5t203.5 85.5q142 0 206 -85.5t64 -272.5q0 -186 -63.5 -268t-204.5 -82q-139 0 -204 83t-65 267zM109 0l921 1483h273l-924 -1483h-270zM238 1141q0 -105 22 -153t70 -48q51 0 72.5 47t21.5 154q0 111 -21.5 160t-72.5 49q-49 0 -70.5 -49 t-21.5 -160zM797 334q0 187 63.5 272.5t204.5 85.5t204.5 -85.5t63.5 -272.5q0 -186 -63.5 -268t-204.5 -82q-139 0 -203.5 82.5t-64.5 267.5zM973 334q0 -105 22 -153t70 -48q49 0 70.5 47.5t21.5 153.5q0 111 -21.5 160t-70.5 49q-50 0 -71 -48.5t-21 -160.5z" />
<glyph unicode="&#x26;" horiz-adv-x="1386" d="M53 442q0 82 26.5 154t63 118.5t84.5 85t79.5 56t60.5 29.5q-111 154 -111 284q0 137 100 233.5t277 96.5q188 0 287.5 -91t99.5 -237q0 -56 -22 -110t-52.5 -92t-72.5 -74t-70.5 -55t-57.5 -35l285 -350q64 140 64 309l262 -55q0 -133 -38 -262.5t-118 -229.5l176 -217 h-272l-64 78q-156 -94 -378 -94q-128 0 -233 27.5t-173.5 73t-115.5 106t-67 123.5t-20 128zM346 459q0 -45 17.5 -85.5t54 -74.5t99.5 -54t145 -20q108 0 204 49l-346 424q-23 -11 -46.5 -27t-55.5 -44.5t-52 -72.5t-20 -95zM508 1169q0 -82 96 -196q27 14 51 31.5 t52.5 43.5t45.5 60t17 70q0 48 -33.5 81t-95.5 33q-64 0 -98.5 -36t-34.5 -87z" />
<glyph unicode="'" horiz-adv-x="364" d="M63 1722h242l-47 -567h-156z" />
<glyph unicode="(" horiz-adv-x="739" d="M57 764q0 148 27.5 285.5t71.5 239t97 189.5t106 146.5t97 101t72 61.5l27 19l186 -178q-8 -5 -21.5 -14.5t-52.5 -45.5t-74.5 -79.5t-79 -117.5t-74.5 -157t-52.5 -201.5t-21.5 -248.5t20.5 -248t54 -202t73.5 -156t80 -118t73.5 -78t53.5 -46l21 -14l-186 -178 q-10 7 -28 19.5t-70 59.5t-99 102t-104.5 145.5t-98.5 190t-69.5 237.5t-28.5 286z" />
<glyph unicode=")" horiz-adv-x="739" d="M-2 -98q8 5 21.5 14.5t52.5 45.5t75 79t79.5 116.5t74.5 157t52.5 201.5t21.5 248q0 102 -13 197t-34.5 169t-50 140.5t-60 116t-62.5 90.5t-59.5 68.5t-50 46.5t-34.5 28l-13 8l186 178q10 -7 28 -20t70 -60t99 -102t104.5 -146t98.5 -190.5t69.5 -237.5t28.5 -286 t-27.5 -285.5t-71.5 -238.5t-97 -189t-106 -146.5t-97 -100.5t-71 -61l-28 -19z" />
<glyph unicode="*" horiz-adv-x="1245" d="M59 958v240l412 -59l-328 254l170 168l248 -334l-53 411h240l-62 -413l254 325l168 -168l-334 -247l410 53v-240l-412 60l328 -250l-170 -170l-248 334l53 -410h-239l61 410l-252 -326l-170 170l334 248z" />
<glyph unicode="+" horiz-adv-x="1054" d="M59 664v213h357v360h225v-360h354v-213h-354v-375h-225v375h-357z" />
<glyph unicode="," horiz-adv-x="479" d="M59 164q0 74 50.5 126t123.5 52q75 0 127 -52t52 -126v-164q0 -153 -54.5 -233t-185.5 -80q-18 0 -35.5 2.5t-26.5 4.5l-8 3v133q27 -10 72 -10q51 0 73.5 31.5t22.5 93.5v49q-24 -4 -37 -4q-73 0 -123.5 50t-50.5 124z" />
<glyph unicode="-" horiz-adv-x="1107" d="M98 520v211h912v-211h-912z" />
<glyph unicode="." horiz-adv-x="468" d="M59 164q0 74 50.5 126t123.5 52q75 0 127 -52t52 -126q0 -73 -52 -123.5t-127 -50.5q-73 0 -123.5 50t-50.5 124z" />
<glyph unicode="/" horiz-adv-x="1304" d="M35 0l919 1483h318l-924 -1483h-313z" />
<glyph unicode="0" horiz-adv-x="1253" d="M76 729q0 398 133.5 587t417.5 189t417.5 -189t133.5 -587q0 -390 -132.5 -567.5t-418.5 -177.5q-283 0 -417 178t-134 567zM385 729q0 -247 59.5 -360t182.5 -113q126 0 183.5 111.5t57.5 361.5q0 259 -57.5 378.5t-183.5 119.5t-184 -120t-58 -378z" />
<glyph unicode="1" horiz-adv-x="802" d="M37 995v265q81 0 156 26.5t127 66t81 68.5t45 52l7 10h241v-1483h-305v1102q-59 -40 -151 -73.5t-201 -33.5z" />
<glyph unicode="2" horiz-adv-x="1150" d="M59 1004q1 107 28.5 194t85.5 157.5t160 110t240 39.5q247 0 380.5 -129.5t133.5 -328.5q0 -89 -34.5 -171.5t-89.5 -145.5t-121.5 -119.5t-133 -102.5t-121.5 -86.5t-89.5 -79t-34.5 -72.5v-6h598v-264h-983v164q0 73 38 143.5t99 129t134.5 116t147 113t134.5 110.5 t99 119.5t38 128.5q0 87 -54.5 145t-154.5 58q-105 0 -160 -77t-55 -198z" />
<glyph unicode="3" horiz-adv-x="1214" d="M63 1055q1 98 30.5 178t90 142t162.5 96t238 34q247 0 383.5 -112.5t136.5 -292.5q0 -149 -73 -234t-191 -116q145 -25 226 -113t81 -234q0 -186 -148.5 -302.5t-412.5 -116.5q-137 0 -239 33.5t-162.5 95t-89.5 140t-29 175.5l284 51q0 -95 62 -159.5t182 -63.5 q105 0 168 54t63 147q0 54 -26.5 92.5t-74.5 59t-103.5 29t-122.5 7.5h-49v221h49q284 -4 284 174q0 86 -58.5 136.5t-154.5 50.5q-108 0 -163.5 -65.5t-55.5 -157.5z" />
<glyph unicode="4" horiz-adv-x="1198" d="M33 371v192l657 920h320v-889h127v-223h-127v-371h-305v371h-672zM330 594h375v524z" />
<glyph unicode="5" horiz-adv-x="1167" d="M66 442l282 47q0 -98 56.5 -165.5t168.5 -67.5q102 0 163 63.5t61 174.5q0 117 -62 182t-176 65q-44 0 -85.5 -10.5t-61 -20t-21.5 -12.5h-278v785h921v-264h-616v-281q80 29 178 29q241 0 380.5 -124.5t139.5 -371.5q0 -222 -138.5 -354.5t-387.5 -132.5q-137 0 -240 35 t-163.5 98.5t-90 144.5t-30.5 180z" />
<glyph unicode="6" horiz-adv-x="1232" d="M78 752q0 183 28 317t91 234.5t172 151t264 50.5q119 0 210.5 -25t149 -66.5t95 -100.5t52 -121t15.5 -135l-283 -51q0 43 -11 80t-35.5 70t-69.5 52t-107 19q-76 0 -127.5 -30t-80 -90t-40.5 -134.5t-14 -179.5q103 120 315 120q130 0 234.5 -51.5t168.5 -156.5t64 -248 q0 -209 -142.5 -341t-393.5 -132q-153 0 -261 49.5t-172 150t-93 239t-29 329.5zM393 559q16 -152 70 -227.5t166 -75.5q99 0 158 65t59 164q0 104 -64.5 163t-163.5 59q-53 0 -96 -17.5t-69 -45t-39 -47t-21 -38.5z" />
<glyph unicode="7" horiz-adv-x="1042" d="M35 1214v269h987v-148l-514 -1335h-322l480 1214h-631z" />
<glyph unicode="8" horiz-adv-x="1269" d="M66 412q0 142 83.5 237.5t219.5 124.5q-110 31 -180 113.5t-70 218.5q0 177 137 288t379 111t379 -111t137 -288q0 -136 -70 -218.5t-180 -113.5q137 -28 219 -123.5t82 -238.5q0 -194 -150 -311t-417 -117t-418 117t-151 311zM389 471q0 -103 67.5 -162t178.5 -59 t178.5 59t67.5 162q0 90 -61.5 147.5t-145.5 57.5h-74q-84 0 -147.5 -57.5t-63.5 -147.5zM436 1063q0 -77 49.5 -125.5t118.5 -48.5h70q67 0 114.5 49.5t47.5 124.5q0 73 -55.5 124.5t-145.5 51.5q-88 0 -143.5 -51.5t-55.5 -124.5z" />
<glyph unicode="9" horiz-adv-x="1232" d="M63 1026q0 210 142.5 341.5t392.5 131.5q154 0 262 -49.5t172.5 -150t93.5 -239t29 -329.5q0 -144 -17.5 -257.5t-57.5 -207t-103.5 -154.5t-158.5 -94.5t-220 -33.5q-118 0 -209.5 24t-149 64t-94.5 97t-51.5 117.5t-15.5 131.5l282 51q0 -42 11.5 -78t36 -67.5 t69.5 -49.5t107 -18q60 0 105 20.5t74 56.5t47 92t26 119t10 146q-38 -47 -115.5 -84t-200.5 -37q-97 0 -181.5 30.5t-148.5 87t-100.5 144t-36.5 195.5zM385 997q0 -104 64.5 -162.5t162.5 -58.5q53 0 96.5 17.5t69.5 44.5t39.5 47t20.5 39q-14 150 -68.5 226.5 t-165.5 76.5q-100 0 -159.5 -65.5t-59.5 -164.5z" />
<glyph unicode=":" horiz-adv-x="526" d="M88 164q0 74 50.5 126t123.5 52q75 0 126.5 -52t51.5 -126q0 -73 -51.5 -123.5t-126.5 -50.5q-74 0 -124 50t-50 124zM88 850q0 74 50.5 126t123.5 52q75 0 126.5 -52t51.5 -126q0 -73 -51.5 -123.5t-126.5 -50.5q-74 0 -124 50t-50 124z" />
<glyph unicode=";" horiz-adv-x="530" d="M88 164q0 74 50.5 126t123.5 52q75 0 126.5 -52t51.5 -126v-164q0 -153 -54 -233t-185 -80q-18 0 -35.5 2.5t-25.5 4.5l-9 3v133q27 -10 72 -10q51 0 73.5 31.5t22.5 93.5v49q-24 -4 -37 -4q-74 0 -124 50t-50 124zM88 850q0 74 50.5 126t123.5 52q75 0 126.5 -52 t51.5 -126q0 -73 -51.5 -123.5t-126.5 -50.5q-74 0 -124 50t-50 124z" />
<glyph unicode="&#x3c;" horiz-adv-x="1062" d="M47 426v213l930 559v-270l-678 -398l678 -395v-270z" />
<glyph unicode="=" horiz-adv-x="1382" d="M100 367v213h1182v-213h-1182zM100 872v213h1182v-213h-1182z" />
<glyph unicode="&#x3e;" horiz-adv-x="1062" d="M86 -135v270l676 395l-676 398v270l930 -559v-213z" />
<glyph unicode="?" horiz-adv-x="1101" d="M43 1008q2 231 128.5 361t395.5 130q220 0 354 -121t134 -344q0 -73 -24.5 -138.5t-64 -114.5t-87 -93t-95.5 -82.5t-87.5 -74.5t-64 -76.5t-24.5 -81.5v-49h-268v47q0 64 23 121t60 100t81.5 82.5t89 77t81.5 75.5t60 85.5t23 99.5q0 56 -17.5 99t-47.5 67.5t-65.5 36.5 t-74.5 12q-109 0 -168 -70.5t-59 -200.5zM313 57q0 71 49 120.5t119 49.5q71 0 120.5 -49.5t49.5 -120.5q0 -72 -49.5 -121t-120.5 -49t-119.5 49t-48.5 121z" />
<glyph unicode="@" horiz-adv-x="1873" d="M61 504q0 268 110.5 467.5t307 304t453.5 104.5q256 0 451 -96.5t305 -281t110 -433.5q0 -121 -24.5 -218t-67.5 -163.5t-103 -111t-129.5 -64.5t-148.5 -20q-48 0 -87 11.5t-60.5 28t-36 33t-19.5 27.5l-4 12h-10q-5 -11 -18 -26t-39.5 -37t-73.5 -36.5t-105 -14.5 q-149 0 -238 94t-89 238q0 136 95.5 224.5t252.5 88.5q55 0 100 -16.5t63.5 -32.5t24.5 -27l4 -6v96q0 82 -36 124t-119 42q-154 0 -154 -133l-198 31q0 39 7.5 76.5t31.5 81t61.5 75t103.5 53t152 21.5q103 0 177 -26.5t115 -74t59 -104.5t18 -127v-442q0 -38 18 -55 t57 -17q103 0 158 103.5t55 291.5q0 279 -182 443t-477 164q-191 0 -337.5 -80.5t-229 -233.5t-82.5 -358q0 -196 74.5 -346.5t218.5 -236t339 -85.5q106 0 192.5 12t120.5 24l34 11l71 -190q-6 -3 -16.5 -7t-49 -14.5t-83 -19t-117.5 -15t-152 -6.5q-196 0 -357 64.5 t-270 180t-168 276.5t-59 352zM774 322q0 -69 43 -111.5t115 -42.5q86 0 128 46t42 108q0 58 -42.5 101.5t-127.5 43.5q-72 0 -115 -39.5t-43 -105.5z" />
<glyph unicode="A" d="M10 0l426 1483h305l426 -1483h-319l-66 274h-387l-65 -274h-320zM444 487h287l-143 600z" />
<glyph unicode="B" horiz-adv-x="1239" d="M115 0v1483h420q573 0 573 -377q0 -237 -193 -320q130 -39 205.5 -134.5t75.5 -231.5q0 -220 -150.5 -320t-443.5 -100h-487zM420 248h192q299 0 299 186q0 110 -72.5 157.5t-224.5 47.5h-194v-391zM420 860h151q107 0 173.5 48t66.5 139q0 186 -236 186h-155v-373z" />
<glyph unicode="C" horiz-adv-x="1202" d="M68 731q0 145 17 259.5t56.5 212t103 161.5t159 99.5t221.5 35.5q124 0 217.5 -29t151 -77.5t93.5 -120t49.5 -146.5t14.5 -168l-287 -51q0 67 -12 122t-38.5 101t-74.5 71.5t-114 25.5q-62 0 -107.5 -25t-72 -66t-42.5 -107t-21 -135t-5 -163q0 -99 5.5 -168t20.5 -131 t42.5 -98t72 -57t107.5 -21q129 0 184 78t55 231l285 -47q0 -90 -13 -164t-48.5 -145t-93 -119t-151.5 -77t-218 -29q-126 0 -220.5 31t-158.5 89.5t-104 151t-57 208t-17 267.5z" />
<glyph unicode="D" horiz-adv-x="1300" d="M115 0v1483h422q200 0 361 -93.5t254 -266t93 -392.5q0 -165 -54 -303t-148.5 -231.5t-225 -145t-280.5 -51.5h-422zM420 264h100q191 0 303.5 125t112.5 342q0 219 -114 352.5t-302 133.5h-100v-953z" />
<glyph unicode="E" horiz-adv-x="1144" d="M115 0v1483h970v-264h-665v-340h536v-265h-536v-350h665v-264h-970z" />
<glyph unicode="F" horiz-adv-x="1075" d="M115 0v1483h911v-264h-606v-340h538v-265h-538v-614h-305z" />
<glyph unicode="G" horiz-adv-x="1220" d="M68 733q0 144 17 258.5t56.5 211.5t103 161t159 99.5t221.5 35.5q125 0 218.5 -29.5t151 -78t93.5 -120.5t49 -147.5t14 -169.5l-283 -47q0 67 -12.5 122t-39.5 101t-75.5 71.5t-115.5 25.5q-62 0 -107.5 -25t-72 -66t-42.5 -107t-21 -134.5t-5 -161.5q0 -100 5.5 -168.5 t20.5 -131t42.5 -99t72 -57.5t107.5 -21q136 0 188.5 63.5t52.5 184.5v53h-268v207h551v-252q0 -88 -13 -160t-48 -142.5t-92 -118.5t-151.5 -77.5t-219.5 -29.5q-158 0 -266 46.5t-172 143.5t-91.5 232t-27.5 327z" />
<glyph unicode="H" horiz-adv-x="1380" d="M115 0v1483h305v-611h541v611h305v-1483h-305v608h-541v-608h-305z" />
<glyph unicode="I" horiz-adv-x="530" d="M113 0v1483h305v-1483h-305z" />
<glyph unicode="J" horiz-adv-x="872" d="M27 6v273q100 -25 182 -25q141 0 197.5 60.5t56.5 195.5v973h305v-979q0 -124 -25 -215.5t-83 -162.5t-161.5 -107.5t-252.5 -36.5q-123 0 -219 24z" />
<glyph unicode="K" horiz-adv-x="1259" d="M115 0v1483h305v-670l479 670h363l-541 -717l545 -766h-361l-373 514l-112 -149v-365h-305z" />
<glyph unicode="L" horiz-adv-x="974" d="M115 0v1483h305v-1219h530v-264h-835z" />
<glyph unicode="M" horiz-adv-x="1554" d="M115 0v1483h250l411 -588l414 588h250v-1483h-305v963l-359 -496l-356 496v-963h-305z" />
<glyph unicode="N" horiz-adv-x="1351" d="M115 0v1483h221l596 -905v905h305v-1483h-276l-541 858v-858h-305z" />
<glyph unicode="O" horiz-adv-x="1275" d="M68 733q0 395 137.5 580.5t433.5 185.5q295 0 433 -185.5t138 -580.5q0 -393 -137.5 -571t-433.5 -178q-297 0 -434 178t-137 571zM375 733q0 -251 63 -364t201 -113q137 0 199.5 113t62.5 364q0 258 -62.5 376t-199.5 118q-138 0 -201 -118t-63 -376z" />
<glyph unicode="P" horiz-adv-x="1247" d="M115 0v1483h510q135 0 237.5 -25.5t181.5 -82t120.5 -154t41.5 -234.5q0 -160 -76 -271t-206 -163.5t-303 -52.5h-201v-500h-305zM420 766h219q130 0 206.5 55.5t76.5 169.5q0 115 -80 170.5t-215 55.5h-207v-451z" />
<glyph unicode="Q" horiz-adv-x="1273" d="M66 735q0 394 138 579t433 185q296 0 433.5 -184.5t137.5 -579.5q0 -354 -110.5 -533t-347.5 -210q30 -148 292 -148h11v-245h-9q-106 0 -191 22q-89 23 -146 61t-97 91t-58.5 106.5t-23.5 112.5q-238 29 -350 208.5t-112 534.5zM375 735q0 -253 62 -366t200 -113 t200 113t62 366q0 257 -62 374.5t-200 117.5t-200 -117.5t-62 -374.5z" />
<glyph unicode="R" horiz-adv-x="1306" d="M113 0v1483h495q135 0 238 -25.5t182 -82t120.5 -154t41.5 -234.5q0 -146 -81 -248t-216 -157q23 -28 66.5 -85.5t71.5 -92t65 -73.5t70 -58t63 -19q20 0 35.5 2.5t20.5 5.5l5 2v-258q-47 -18 -123 -18q-72 0 -136 30t-112 77.5t-91 105t-80 115t-71.5 105t-73 77.5 t-77.5 30h-108v-528h-305zM418 772h205q130 0 206 53.5t76 165.5q0 115 -80 170.5t-215 55.5h-192v-445z" />
<glyph unicode="S" horiz-adv-x="1157" d="M49 424l283 45q0 -99 57 -163t182 -64q220 0 220 176q0 44 -24.5 78t-66.5 56.5t-96.5 41.5t-114.5 38t-119.5 41.5t-114 57t-96.5 79.5t-66.5 113t-24.5 154q0 62 17.5 120.5t56 114t95 96.5t140.5 66t186 25q264 0 397.5 -123.5t133.5 -333.5l-283 -45q0 111 -60 176.5 t-180 65.5q-101 0 -149.5 -46.5t-48.5 -121.5q0 -42 25 -75t67 -55.5t96 -43t114 -42t120.5 -46.5t114.5 -62t96 -84t67 -117t25 -157q0 -85 -28 -155t-88.5 -127t-167 -89.5t-251.5 -33.5h-8q-104 0 -189 24q-88 25 -146 67.5t-97.5 100.5t-56.5 120t-17 128z" />
<glyph unicode="T" horiz-adv-x="1101" d="M25 1219v264h1052v-264h-372v-1219h-308v1219h-372z" />
<glyph unicode="U" horiz-adv-x="1292" d="M104 524v959h306v-930q0 -137 58.5 -217t176.5 -80q119 0 178.5 80t59.5 217v930h307v-959q0 -127 -29 -223.5t-92 -169t-169.5 -110t-254.5 -37.5q-149 0 -255 37.5t-168 110t-90 169t-28 223.5z" />
<glyph unicode="V" horiz-adv-x="1212" d="M8 1483h342l266 -1049l269 1049h319l-434 -1483h-328z" />
<glyph unicode="W" horiz-adv-x="1878" d="M16 1483h326l219 -1047l238 1047h270l270 -1047l199 1047h313l-344 -1483h-323l-238 1069l-246 -1069h-319z" />
<glyph unicode="X" horiz-adv-x="1220" d="M-2 0l414 729l-410 754h348l260 -496l258 496h349l-410 -756l416 -727h-349l-266 475l-264 -475h-346z" />
<glyph unicode="Y" horiz-adv-x="1196" d="M16 1483h336l256 -613l262 613h314l-434 -934v-549h-306v549z" />
<glyph unicode="Z" horiz-adv-x="1103" d="M57 1219v264h987v-244l-616 -975h616v-264h-985v242l613 977h-615z" />
<glyph unicode="[" horiz-adv-x="821" d="M106 -88v1692h664v-265h-358v-1163h358v-264h-664z" />
<glyph unicode="\" horiz-adv-x="1304" d="M33 1483h315l922 -1483h-316z" />
<glyph unicode="]" horiz-adv-x="821" d="M51 -88v264h357v1161h-357v265l662 2v-1692h-662z" />
<glyph unicode="^" horiz-adv-x="782" d="M63 1145l189 364h278l191 -364h-203l-125 209l-127 -209h-203z" />
<glyph unicode="_" horiz-adv-x="1226" d="M90 -23h1047v-210h-1047v210z" />
<glyph unicode="`" horiz-adv-x="866" d="M156 1552h323l135 -364h-213z" />
<glyph unicode="a" horiz-adv-x="1099" d="M63 510q0 518 404 518q53 0 99 -13.5t74 -32.5t44 -35t21 -27h8v96h239v-731q0 -38 14.5 -53t47.5 -15q10 0 21.5 2t17.5 4l6 2v-213q-47 -22 -158 -22q-92 0 -138 41.5t-46 85.5v2h-12q-5 -12 -11.5 -23t-27 -32t-46 -36t-71 -26.5t-100.5 -11.5q-180 0 -283 130.5 t-103 389.5zM338 510q0 -154 43 -224.5t129 -70.5q99 0 141.5 70.5t42.5 224.5q0 151 -43 219t-141 68q-87 0 -129.5 -66.5t-42.5 -220.5z" />
<glyph unicode="b" horiz-adv-x="1052" d="M102 0v1503h281v-577h8q5 12 17.5 27t36.5 33t68 30t99 12q377 0 377 -518q0 -259 -100.5 -389.5t-276.5 -130.5q-57 0 -104 14t-73.5 35t-40.5 37.5t-19 29.5h-8v-106h-265zM358 510q0 -154 43 -224.5t142 -70.5q86 0 129 70.5t43 224.5t-42.5 220.5t-129.5 66.5 q-98 0 -141.5 -68t-43.5 -219z" />
<glyph unicode="c" horiz-adv-x="1007" d="M63 504q0 278 113.5 401t347.5 123q101 0 178 -20.5t124 -55t76.5 -86t40.5 -106t11 -121.5l-260 -41q0 90 -40.5 144.5t-129.5 54.5t-132.5 -65.5t-43.5 -227.5q0 -153 45 -221t133 -68q91 0 129.5 48t38.5 147l258 -39q0 -65 -10.5 -117.5t-39 -103t-75.5 -84.5 t-124 -55t-179 -21q-234 0 -347.5 121t-113.5 393z" />
<glyph unicode="d" horiz-adv-x="1095" d="M63 510q0 518 377 518q55 0 99 -12t68.5 -30t37 -33t17.5 -27h8v577h280v-1222q0 -34 15 -49t47 -15q11 0 23 2t18 4l6 2v-213q-48 -22 -154 -22q-57 0 -100.5 15.5t-65.5 39t-32.5 46.5t-10.5 44v4h-4q-31 -71 -87 -107q-66 -42 -165 -42q-176 0 -276.5 130.5 t-100.5 389.5zM338 510q0 -154 43 -224.5t129 -70.5q99 0 142.5 70.5t43.5 224.5q0 151 -44 219t-142 68q-87 0 -129.5 -66.5t-42.5 -220.5z" />
<glyph unicode="e" horiz-adv-x="1003" d="M63 498q0 279 113 404.5t348 125.5q95 0 169.5 -20t120.5 -52t76 -77t42 -90.5t12 -96.5q0 -138 -101.5 -207t-295.5 -69h-197q11 -109 55.5 -153t122.5 -44q170 0 170 127l244 -27q0 -145 -106 -237t-314 -92q-235 0 -347 118t-112 390zM348 559h174q83 0 128.5 33.5 t45.5 91.5q0 60 -40.5 97.5t-127.5 37.5q-86 0 -129.5 -56.5t-50.5 -203.5z" />
<glyph unicode="f" horiz-adv-x="735" d="M41 795v221h135v114q0 90 19.5 156.5t64.5 118t126 78t198 26.5q40 0 81 -4.5t62 -8.5l21 -5v-231q-62 18 -123 18q-87 0 -127.5 -37.5t-40.5 -116.5v-108h260v-221h-260v-795h-281v795h-135z" />
<glyph unicode="g" horiz-adv-x="1054" d="M61 510q0 518 406 518q99 0 162.5 -38t75.5 -68h10v94h235v-1102q0 -76 -21 -135.5t-69.5 -108t-135.5 -74.5t-210 -26q-86 0 -154.5 13t-112 32t-75 49t-47 55t-24 58.5t-10 52.5t-1.5 43l252 39q0 -150 172 -150t172 158v156h-10q-5 -10 -19 -23t-39.5 -28t-70 -25 t-98.5 -10q-183 0 -285.5 130t-102.5 390zM338 510q0 -155 42 -225t130 -70q99 0 141.5 70.5t42.5 224.5q0 151 -43 219t-141 68q-89 0 -130.5 -66t-41.5 -221z" />
<glyph unicode="h" horiz-adv-x="1110" d="M100 0v1495h281v-580h6q2 5 7 12.5t25 27t46 34.5t72.5 27t101.5 12q89 0 158 -28t110.5 -77t62.5 -111t21 -134v-397q0 -34 15 -49t47 -15q10 0 21.5 2t17.5 4l6 2v-213q-48 -22 -154 -22q-114 0 -173.5 53.5t-59.5 159.5v418q0 35 -7 64.5t-24 56.5t-50 42t-79 15 q-87 0 -128.5 -50.5t-41.5 -123.5v-625h-281z" />
<glyph unicode="i" horiz-adv-x="526" d="M63 1325q0 70 49 118t121 48q71 0 120.5 -48t49.5 -118q0 -71 -49.5 -118.5t-120.5 -47.5q-72 0 -121 47t-49 119zM98 203v813h281v-735q0 -34 14.5 -49t46.5 -15q10 0 22 2t18 4l7 2v-213q-47 -22 -153 -22q-115 0 -175.5 53.5t-60.5 159.5z" />
<glyph unicode="j" horiz-adv-x="485" d="M-215 -180q1 0 10 -2t23.5 -5t33 -6.5t41.5 -5.5t44 -2q94 0 129.5 38.5t35.5 135.5v1043h281v-1049q0 -95 -19.5 -165t-65 -124.5t-127.5 -82t-200 -27.5q-43 0 -86.5 5t-70 10t-29.5 5v232zM68 1325q0 72 48 120t120 48t121 -48t49 -120q0 -70 -49 -117t-121 -47 t-120 47t-48 117z" />
<glyph unicode="k" horiz-adv-x="1054" d="M102 0v1503h281v-915l352 428h332l-432 -500l407 -516h-329l-250 315l-80 -92v-223h-281z" />
<glyph unicode="l" horiz-adv-x="524" d="M98 203v1300h281v-1227q0 -31 14.5 -45t46.5 -14q10 0 21.5 2t17.5 4l6 2v-213q-45 -22 -151 -22q-233 0 -236 213z" />
<glyph unicode="m" horiz-adv-x="1757" d="M37 793v213q47 22 153 22q58 0 101.5 -16t65.5 -41.5t32 -50t10 -46.5v-2h7q2 6 7.5 16.5t27 37.5t49.5 47.5t79.5 37.5t112.5 17q216 0 305 -158q14 26 36.5 50.5t58 50t88.5 41.5t116 16q89 0 158 -28t110.5 -77t62.5 -111t21 -134v-397q0 -34 15 -49t47 -15 q10 0 21.5 2t17.5 4l6 2v-213q-48 -22 -154 -22q-114 0 -173.5 53.5t-59.5 159.5v418q0 76 -36.5 127t-123.5 51q-69 0 -110 -32t-54 -83v-684h-280v621q0 35 -7 64.5t-24 56.5t-50 42t-79 15q-84 0 -126 -47t-42 -115v-637h-283v737q0 34 -14 49t-45 15q-11 0 -23 -2 t-18 -4z" />
<glyph unicode="n" horiz-adv-x="1155" d="M39 793v213q48 22 154 22q57 0 100 -16t64.5 -41.5t31.5 -49.5t10 -47v-2h7q2 6 7.5 16.5t27.5 37.5t50.5 47.5t80 37.5t112.5 17q89 0 158 -28t110.5 -77t62.5 -111t21 -134v-397q0 -64 60 -64q11 0 23 2t18 4l6 2v-213q-48 -22 -154 -22q-114 0 -174.5 53.5 t-60.5 159.5v418q0 35 -7 64.5t-24 56.5t-50 42t-79 15q-84 0 -126 -47t-42 -115v-637h-281v737q0 34 -14.5 49t-46.5 15q-10 0 -21.5 -2t-17.5 -4z" />
<glyph unicode="o" horiz-adv-x="1040" d="M63 502q0 270 111 398t346 128q236 0 346.5 -128t110.5 -398q0 -269 -110 -390.5t-347 -121.5q-236 0 -346.5 122t-110.5 390zM348 502q0 -150 41 -218.5t131 -68.5t131 68.5t41 218.5q0 155 -40.5 225t-131.5 70t-131.5 -70t-40.5 -225z" />
<glyph unicode="p" horiz-adv-x="1095" d="M37 793v213q47 22 153 22q57 0 100.5 -15.5t65.5 -39t32.5 -46.5t10.5 -44v-4h4q4 12 10.5 25.5t25.5 37t43.5 41.5t67.5 31.5t95 13.5q182 0 284.5 -131t102.5 -391q0 -264 -101.5 -391t-303.5 -127q-76 0 -130 24t-63 47h-8v-465h-283v1143q0 34 -14 49t-45 15 q-11 0 -23 -2t-18 -4zM401 500q0 -150 43 -217.5t140 -67.5q89 0 131.5 66t42.5 219q0 154 -43 225.5t-131 71.5q-96 0 -139.5 -72t-43.5 -225z" />
<glyph unicode="q" horiz-adv-x="1054" d="M63 506q0 259 101.5 390.5t277.5 131.5q57 0 104 -14.5t73.5 -36t40.5 -39t18 -29.5h10v107h264v-1422h-280v496h-10q-5 -12 -17.5 -26.5t-37 -32.5t-68 -29.5t-97.5 -11.5q-379 0 -379 516zM340 500q0 -153 42 -219t130 -66q98 0 141 67t43 218q0 155 -43 226t-141 71 q-88 0 -130 -70.5t-42 -226.5z" />
<glyph unicode="r" horiz-adv-x="825" d="M37 793v213q47 22 153 22q56 0 99 -19t65.5 -48.5t33.5 -59.5t11 -59v-4h9q3 8 8.5 20.5t29 45.5t54.5 58t86.5 45.5t122.5 20.5q55 0 79 -12v-256q-2 2 -12.5 5t-36 6t-57.5 3q-70 0 -121.5 -23.5t-80 -65t-41.5 -89.5t-13 -104v-492h-283v737q0 34 -14 49t-45 15 q-11 0 -23 -2t-18 -4z" />
<glyph unicode="s" horiz-adv-x="972" d="M53 283l258 39q0 -49 41 -83t129 -34q152 0 152 94q0 32 -31.5 54.5t-82 36t-111.5 26.5t-122 35t-111.5 53t-82 87t-31.5 132q0 56 24 108.5t72 98t130 73t186 27.5q218 0 329 -83.5t111 -219.5l-260 -39q0 53 -43.5 87t-128.5 34q-69 0 -103 -23.5t-34 -62.5 q0 -30 31.5 -52t82 -37t111.5 -31t121.5 -41t111 -59.5t82 -93.5t31.5 -137q0 -60 -23 -109.5t-73 -90t-138 -63t-208 -23.5h-8q-105 0 -187 26q-84 26 -131 70t-70.5 95t-23.5 106z" />
<glyph unicode="t" horiz-adv-x="755" d="M27 795v221h135v278h280v-278h283v-221h-283v-400q0 -90 35 -133t111 -43q34 0 63.5 5.5t42.5 10.5l13 5v-232l-7 -1q-82 -17 -145 -17q-113 0 -191 23t-121.5 69t-62 105t-18.5 141v467h-135z" />
<glyph unicode="u" horiz-adv-x="1130" d="M96 340v676h281v-619q0 -35 7 -64.5t24 -56.5t50 -42t79 -15q87 0 127.5 50.5t40.5 123.5v623h280v-735q0 -34 15 -49t47 -15q11 0 23 2t18 4l6 2v-213q-48 -22 -154 -22q-58 0 -101.5 16t-65.5 41t-32 49.5t-10 46.5v2h-6q-2 -6 -7.5 -16.5t-27.5 -37.5t-50 -47t-79 -37 t-112 -17q-90 0 -159.5 28t-110.5 77t-62 111t-21 134z" />
<glyph unicode="v" horiz-adv-x="1019" d="M16 1016h316l186 -647l193 647h293l-342 -1016h-304z" />
<glyph unicode="w" horiz-adv-x="1554" d="M25 1016h299l149 -645l174 645h250l203 -645l133 645h287l-263 -1016h-296l-177 672l-184 -672h-293z" />
<glyph unicode="x" horiz-adv-x="1032" d="M8 0l328 496l-326 520h320l186 -297l186 297h322l-328 -522l330 -494h-321l-189 274q-36 -61 -83 -129.5t-76 -106.5l-29 -38h-320z" />
<glyph unicode="y" horiz-adv-x="1058" d="M96 340v676h260v-623q0 -188 164 -188q87 0 129.5 51t42.5 121v639h264v-1104q0 -342 -426 -342q-82 0 -148 13t-107.5 32t-72 48.5t-45.5 54.5t-23 58t-9.5 52t-1.5 43l237 37q0 -152 170 -152q93 0 135 41t42 121v188h-9q-3 -7 -8.5 -16.5t-24.5 -29t-43.5 -34.5 t-69 -26.5t-97.5 -11.5q-179 0 -269 99.5t-90 252.5z" />
<glyph unicode="z" horiz-adv-x="946" d="M66 0v203l458 590h-458v223h813v-203l-465 -592h465v-221h-813z" />
<glyph unicode="{" horiz-adv-x="788" d="M8 618v283q24 0 51 7.5t56.5 27t53 47.5t39 74t15.5 102v150q0 102 32 182t83 129t121 81t140 44t146 12v-264q-45 0 -81.5 -9.5t-68 -31t-49.5 -61.5t-18 -95v-168q0 -87 -22 -156.5t-58 -111.5t-70 -65.5t-69 -34.5q27 -9 54 -25t57.5 -46.5t53.5 -69.5t38.5 -99 t15.5 -131v-168q0 -106 61 -151t156 -45v-263q-76 0 -146 12t-140 43.5t-121 80.5t-83 129t-32 182v151q0 56 -15.5 102t-39 74t-53 47.5t-56.5 27t-51 7.5z" />
<glyph unicode="|" horiz-adv-x="503" d="M109 -348v2005h286v-2005h-286z" />
<glyph unicode="}" horiz-adv-x="788" d="M43 25q95 0 156 45t61 151v168q0 71 15.5 131t38.5 99t53.5 69.5t57.5 46.5t54 25q-35 11 -69 34.5t-70 65.5t-58 111.5t-22 156.5v168q0 55 -18 95t-49.5 61.5t-68 31t-81.5 9.5v264q76 0 146 -12t140 -44t121 -81t83 -129t32 -182v-150q0 -56 15.5 -102t39 -74 t53 -47.5t56.5 -27t51 -7.5v-283q-24 0 -51 -7.5t-56.5 -27t-53 -47.5t-39 -74t-15.5 -102v-151q0 -102 -32 -182t-83 -129t-121 -80.5t-140 -43.5t-146 -12v263z" />
<glyph unicode="~" horiz-adv-x="1026" d="M88 618q0 47 13.5 89.5t41 79.5t76.5 59t113 22q47 0 95.5 -19t82 -41t77.5 -41t83 -19q57 0 85.5 33t28.5 63h162q0 -27 -7.5 -58t-27 -68t-48.5 -66t-77.5 -48.5t-109.5 -19.5q-51 0 -100 19t-81.5 41.5t-75 41.5t-81.5 19q-46 0 -69 -26t-23 -61h-158z" />
<glyph unicode="&#xa1;" horiz-adv-x="454" d="M82 -489l55 1118h176l62 -1118h-293zM88 889q0 57 39 97t96 40q58 0 97.5 -40t39.5 -97t-39.5 -97t-97.5 -40q-57 0 -96 40t-39 97z" />
<glyph unicode="&#xa2;" horiz-adv-x="1208" d="M63 731q0 143 22.5 251.5t74 194.5t139.5 137t213 66v195h221v-195q414 -49 414 -493l-281 -47q0 99 -40.5 171t-129.5 95v-764q168 37 168 264l281 -47q0 -74 -10.5 -136.5t-38.5 -124t-73.5 -106.5t-119 -78t-170.5 -44v-185h-221v185q-245 27 -347 188t-102 473z M373 731q0 -88 6.5 -148t24 -112.5t52 -83.5t87.5 -43v760q-52 -14 -86.5 -47.5t-52 -85.5t-24.5 -108t-7 -132z" />
<glyph unicode="&#xa3;" horiz-adv-x="1226" d="M80 502v196h168q-72 142 -92 204q-29 87 -29 167q0 193 137.5 312.5t364.5 119.5q134 0 239 -32t169.5 -88.5t99.5 -126.5t41 -152l-254 -76q-13 79 -82 140t-174 61q-120 0 -177 -55t-57 -146q0 -41 14.5 -88.5t25.5 -72t46 -89t43 -78.5h365v-196h-293q6 -34 6 -72 q0 -91 -43 -166h500v-264h-1004v209q46 0 86.5 11t76 34t56.5 66t21 100q0 37 -10 82h-244z" />
<glyph unicode="&#xa4;" horiz-adv-x="1470" d="M59 104l207 211q-84 131 -84 322t88 330l-209 211l164 153l207 -211q130 76 303 76q171 0 301 -76l209 211l162 -153l-207 -209q92 -140 92 -332q0 -184 -86 -322l207 -209l-164 -153l-207 207q-130 -76 -307 -76t-309 78l-205 -209zM406 639q0 -152 89 -242t240 -90 q152 0 243 90t91 242t-91 243t-243 91q-151 0 -240 -91t-89 -243z" />
<glyph unicode="&#xa5;" horiz-adv-x="1257" d="M47 1483h336l256 -613l262 613h313l-364 -783h242v-170h-312v-135h312v-170h-312v-225h-305v225h-334v170h334v135h-334v170h265z" />
<glyph unicode="&#xa6;" horiz-adv-x="512" d="M115 -346v874h282v-874h-282zM115 782v873h282v-873h-282z" />
<glyph unicode="&#xa7;" horiz-adv-x="1196" d="M70 -16l280 47q0 -101 57.5 -165.5t182.5 -64.5q219 0 219 179q0 42 -24.5 74.5t-66.5 54t-96.5 40t-114.5 37t-119.5 40t-114 54.5t-96.5 75t-66.5 107t-24.5 146q0 125 88 223q-88 98 -88 244q0 61 17.5 120.5t56.5 114.5t95.5 97t141 67t185.5 25q264 0 397 -123.5 t133 -333.5l-283 -47q0 111 -59 176.5t-180 65.5q-101 0 -150 -46.5t-49 -121.5q0 -39 25 -70.5t67 -53.5t96.5 -42t114.5 -42t120.5 -47.5t115 -63.5t96.5 -86t67 -119t25 -158q0 -131 -63 -219q63 -92 63 -219q0 -67 -17 -125.5t-56.5 -110.5t-100 -89t-153 -59.5 t-209.5 -23.5q-108 -1 -196 24.5t-146 68.5t-97 101t-56 120.5t-17 128.5zM391 631q0 -36 17.5 -66.5t44 -52t70.5 -43.5t82.5 -36.5t96.5 -37t97 -39.5q10 33 10 62q0 39 -18 71.5t-43.5 54t-71 43.5t-82.5 35t-97.5 34t-97.5 36q-8 -24 -8 -61z" />
<glyph unicode="&#xa8;" horiz-adv-x="1112" d="M178 1319q0 59 40.5 99t100.5 40q59 0 99.5 -40.5t40.5 -98.5t-40.5 -98.5t-99.5 -40.5q-60 0 -100.5 40t-40.5 99zM649 1319q0 59 40.5 99t98.5 40q59 0 100.5 -40.5t41.5 -98.5t-41.5 -98.5t-100.5 -40.5q-58 0 -98.5 40t-40.5 99z" />
<glyph unicode="&#xa9;" horiz-adv-x="1368" d="M72 637q0 272 166 437t444 165q277 0 445.5 -165.5t168.5 -436.5q0 -270 -168.5 -433t-445.5 -163q-278 0 -444 163t-166 433zM225 637q0 -210 123.5 -334.5t333.5 -124.5q211 0 336 125t125 334q0 211 -125.5 338t-335.5 127t-333.5 -126.5t-123.5 -338.5zM393 629 q0 189 63.5 289t215.5 100q78 0 132.5 -21t82.5 -59.5t39.5 -82t11.5 -99.5l-158 -25q0 57 -27 96t-81 39q-64 0 -87.5 -61.5t-23.5 -175.5q0 -110 25 -165.5t86 -55.5q108 0 108 131l158 -25q0 -258 -266 -258q-149 0 -214 91t-65 282z" />
<glyph unicode="&#xaa;" horiz-adv-x="802" d="M57 1018q0 84 71 145.5t191 61.5q46 0 82 -9.5t49 -19.5l13 -10h6v61q0 84 -109 84q-106 0 -106 -67l-178 24q0 29 6.5 55.5t25.5 57t50 52t84.5 36t124.5 14.5q305 0 305 -233v-260q0 -26 9.5 -35.5t31.5 -9.5l30 4v-152q-34 -14 -112 -14q-65 0 -98 27.5t-33 58.5h-8 q-2 -6 -7 -14t-19 -22t-33 -25t-52.5 -19t-73.5 -8q-116 0 -183 63t-67 154zM248 1022q0 -33 28.5 -55.5t73.5 -22.5q57 0 87 22.5t30 55.5t-27.5 53.5t-89.5 20.5q-45 0 -73.5 -21.5t-28.5 -52.5z" />
<glyph unicode="&#xab;" horiz-adv-x="1212" d="M47 520v215l520 344v-237l-315 -213l315 -215v-236zM600 520v215l522 344v-237l-315 -213l315 -213v-238z" />
<glyph unicode="&#xac;" horiz-adv-x="1331" d="M55 848v211h1172v-672h-226v461h-946z" />
<glyph unicode="&#xad;" horiz-adv-x="0" />
<glyph unicode="&#xae;" horiz-adv-x="1368" d="M72 786q0 272 166.5 437.5t443.5 165.5t445.5 -165.5t168.5 -437.5q0 -270 -168.5 -433t-445.5 -163q-278 0 -444 163t-166 433zM225 786q0 -211 123 -334.5t334 -123.5t336 124t125 334q0 211 -125 337t-336 126q-210 0 -333.5 -126t-123.5 -337zM453 453v708h231 q135 0 209 -53t74 -182q0 -138 -127 -193l139 -280h-164l-127 254h-76v-254h-159zM612 836h74q125 0 125 92t-131 92h-68v-184z" />
<glyph unicode="&#xaf;" horiz-adv-x="1638" d="M399 1188v211h772v-211h-772z" />
<glyph unicode="&#xb0;" horiz-adv-x="804" d="M49 1055q0 147 103 251.5t249 104.5t250.5 -105t104.5 -251t-104.5 -250.5t-250.5 -104.5t-249 104t-103 251zM250 1055q0 -63 44 -107.5t107 -44.5t108.5 44.5t45.5 107.5t-45.5 108t-108.5 45t-107 -45t-44 -108z" />
<glyph unicode="&#xb1;" horiz-adv-x="1083" d="M90 858v211h340v346h225v-346h330v-211h-330v-342h-225v342h-340zM98 201v211h895v-211h-895z" />
<glyph unicode="&#xb2;" horiz-adv-x="772" d="M72 1208q2 131 72.5 210t226.5 79q151 0 230 -65t79 -168q0 -41 -20.5 -78.5t-51.5 -64.5t-66.5 -52.5t-66.5 -44t-51.5 -37.5t-20.5 -35h287v-178h-602v80q1 50 38 95.5t89.5 79t105 64.5t89 65.5t36.5 68.5t-23 57t-67 23q-47 0 -74.5 -38t-27.5 -89z" />
<glyph unicode="&#xb3;" horiz-adv-x="722" d="M63 969l175 24q0 -30 31 -51.5t89 -21.5q42 0 67.5 21.5t25.5 59.5q0 74 -129 70h-46v119h46q106 0 106 78q0 30 -22.5 47.5t-59.5 17.5q-53 0 -80.5 -25t-27.5 -59l-175 27q0 102 68.5 162.5t214.5 60.5q139 0 217 -53t78 -137q0 -138 -119 -174q67 -15 104.5 -62 t37.5 -119q0 -88 -83.5 -141t-234.5 -53q-147 0 -215 56.5t-68 152.5z" />
<glyph unicode="&#xb4;" horiz-adv-x="714" d="M135 1188l133 364h326l-248 -364h-211z" />
<glyph unicode="&#xb5;" horiz-adv-x="1062" d="M96 -406v1422h281v-633q2 -71 38.5 -117.5t121.5 -46.5q87 0 127.5 50.5t40.5 123.5v623h280v-735q0 -34 15 -49t47 -15q11 0 23 2t18 4l6 2v-213q-48 -22 -154 -22q-58 0 -101.5 16t-65.5 41t-32 49.5t-10 46.5v2h-6q-2 -6 -7.5 -16.5t-27.5 -37.5t-50 -47t-79 -37 t-112 -17q-37 0 -72 6v-402h-281z" />
<glyph unicode="&#xb6;" horiz-adv-x="1527" d="M47 981q0 126 44 222.5t124.5 157t189 91t242.5 31.5h342v-1645h-256v639h-86q-179 -1 -312 52.5t-210.5 168.5t-77.5 283zM1155 -162v1645h256v-1645h-256z" />
<glyph unicode="&#xb7;" horiz-adv-x="473" d="M61 852q0 74 51 125t124 51q74 0 125 -51t51 -125t-51 -125t-125 -51q-73 0 -124 51t-51 125z" />
<glyph unicode="&#xb8;" horiz-adv-x="1265" d="M281 -256l145 23q0 -35 30.5 -60.5t88.5 -25.5q43 0 69.5 19.5t26.5 51.5q0 35 -23 57.5t-73 22.5q-56 0 -88 -16l47 188h151l-22 -72q77 -16 123.5 -64t46.5 -126q0 -98 -79 -152.5t-185 -54.5q-71 0 -123.5 19t-80.5 51t-41 66.5t-13 72.5z" />
<glyph unicode="&#xb9;" horiz-adv-x="587" d="M39 1165v207q43 0 84.5 11t70.5 26.5t51.5 32t33.5 27.5t12 14h196v-717h-227v465q-99 -66 -221 -66z" />
<glyph unicode="&#xba;" horiz-adv-x="729" d="M57 1151q0 174 75 262t233 88t232.5 -88t74.5 -262q0 -175 -74 -262.5t-233 -87.5t-233.5 87.5t-74.5 262.5zM250 1151q0 -182 115 -182q59 0 86.5 45t27.5 137q0 184 -114 184q-115 0 -115 -184z" />
<glyph unicode="&#xbb;" horiz-adv-x="1212" d="M90 178v238l316 213l-316 213v237l522 -344v-215zM645 178v236l316 215l-316 213v237l520 -344v-215z" />
<glyph unicode="&#xbc;" horiz-adv-x="1525" d="M51 1165v207q44 0 85.5 11t70 26.5t51.5 32t33.5 27.5t11.5 14h197v-717h-228v465q-99 -66 -221 -66zM193 0l921 1483h272l-923 -1483h-270zM793 139v148l317 426h250v-416h78v-158h-78v-139h-207v139h-360zM995 297h158v211z" />
<glyph unicode="&#xbd;" horiz-adv-x="1595" d="M53 1165v207q44 0 85.5 11t70 26.5t51.5 32t33.5 27.5t11.5 14h197v-717h-228v465q-99 -66 -221 -66zM162 0l919 1483h275l-924 -1483h-270zM918 432q2 131 73.5 211t227.5 80q149 0 229 -66t80 -168q0 -41 -20.5 -79.5t-51.5 -65t-67.5 -52t-67.5 -43.5t-51.5 -37 t-20.5 -34h287v-178h-600v80q0 50 36.5 95t89 78.5t105 64.5t89 65.5t36.5 69.5q0 34 -22 56.5t-68 22.5q-47 0 -73.5 -37.5t-26.5 -88.5z" />
<glyph unicode="&#xbe;" horiz-adv-x="1519" d="M66 969l174 24q0 -30 31.5 -51.5t88.5 -21.5q43 0 68 21.5t25 59.5q0 74 -129 70h-43v119h43q108 0 108 78q0 30 -23 47.5t-59 17.5q-54 0 -82 -25t-28 -59l-174 27q0 102 69 162.5t215 60.5q138 0 216.5 -53t78.5 -137q0 -137 -121 -174q67 -15 104.5 -62t37.5 -119 q0 -88 -83.5 -141t-232.5 -53q-147 0 -215.5 56.5t-68.5 152.5zM186 0l920 1483h274l-923 -1483h-271zM793 139v148l319 426h248v-416h80v-158h-80v-139h-207v139h-360zM995 297h158v211z" />
<glyph unicode="&#xbf;" horiz-adv-x="1095" d="M45 -119q0 73 24.5 138.5t64 114.5t87 93.5t95.5 83t87.5 74.5t64 76.5t24.5 81.5v49h268v-47q0 -64 -23 -121t-60 -100t-81.5 -82.5t-89 -77t-81.5 -75.5t-60 -85.5t-23 -99.5q0 -56 17.5 -99t47.5 -67.5t65.5 -36.5t74.5 -12q109 0 168 70t59 200l283 -51 q-2 -231 -129 -361.5t-396 -130.5q-220 0 -353.5 121t-133.5 344zM449 858q0 72 49 121t120 49t119.5 -49t48.5 -121q0 -71 -49 -120.5t-119 -49.5t-119.5 49.5t-49.5 120.5z" />
<glyph unicode="&#xc0;" d="M10 0l426 1483h305l426 -1483h-319l-66 274h-387l-65 -274h-320zM254 1948h324l135 -365h-213zM444 487h287l-143 600z" />
<glyph unicode="&#xc1;" d="M10 0l426 1483h305l426 -1483h-319l-66 274h-387l-65 -274h-320zM444 487h287l-143 600zM463 1583l133 365h326l-248 -365h-211z" />
<glyph unicode="&#xc2;" d="M10 0l426 1483h305l426 -1483h-319l-66 274h-387l-65 -274h-320zM258 1583l191 365h278l188 -365h-202l-125 209l-127 -209h-203zM444 487h287l-143 600z" />
<glyph unicode="&#xc3;" d="M10 0l426 1483h305l426 -1483h-319l-66 274h-387l-65 -274h-320zM176 1608q0 46 13.5 88t41 78t75 57.5t110.5 21.5q55 0 112 -28t108 -56t93 -28q54 0 82.5 32t28.5 60h161q0 -35 -13 -74.5t-41 -82.5t-83.5 -71t-128.5 -28q-47 0 -93 17.5t-76 39t-69 39t-75 17.5 q-42 0 -64 -24.5t-22 -57.5h-160zM444 487h287l-143 600z" />
<glyph unicode="&#xc4;" d="M10 0l426 1483h305l426 -1483h-319l-66 274h-387l-65 -274h-320zM213 1716q0 59 40.5 99t100.5 40q59 0 99.5 -40.5t40.5 -98.5t-40.5 -98.5t-99.5 -40.5q-60 0 -100.5 40t-40.5 99zM444 487h287l-143 600zM684 1716q0 58 40 98.5t99 40.5t100.5 -40.5t41.5 -98.5 t-41.5 -98.5t-100.5 -40.5t-99 40.5t-40 98.5z" />
<glyph unicode="&#xc5;" d="M10 0l426 1483h305l426 -1483h-319l-66 274h-387l-65 -274h-320zM383 1780q0 86 60.5 146.5t144.5 60.5q85 0 146 -60.5t61 -146.5q0 -83 -61 -143t-146 -60q-83 0 -144 60t-61 143zM444 487h287l-143 600zM510 1780q0 -31 23.5 -53.5t54.5 -22.5q32 0 56 22.5t24 53.5 q0 33 -23.5 56.5t-56.5 23.5q-31 0 -54.5 -23.5t-23.5 -56.5z" />
<glyph unicode="&#xc6;" horiz-adv-x="1931" d="M-14 0l766 1483h1120v-264h-666v-340h537v-265h-537v-350h666v-264h-971v283h-442l-140 -283h-333zM557 481h344v693z" />
<glyph unicode="&#xc7;" horiz-adv-x="1202" d="M68 731q0 145 17 259.5t56.5 212t103 161.5t159 99.5t221.5 35.5q124 0 217.5 -29t151 -77.5t93.5 -120t49.5 -146.5t14.5 -168l-287 -51q0 67 -12 122t-38.5 101t-74.5 71.5t-114 25.5q-62 0 -107.5 -25t-72 -66t-42.5 -107t-21 -135t-5 -163q0 -99 5.5 -168t20.5 -131 t42.5 -98t72 -57t107.5 -21q129 0 184 78t55 231l285 -47q0 -84 -11.5 -153.5t-42 -137.5t-79.5 -116t-129 -81.5t-185 -41.5l-14 -49q76 -16 123 -64.5t47 -126.5q0 -98 -79 -152.5t-185 -54.5q-71 0 -123.5 19t-80.5 51t-41 66.5t-13 72.5l145 23q0 -35 30.5 -60.5 t88.5 -25.5q43 0 69.5 19.5t26.5 51.5q0 35 -23 57.5t-73 22.5q-56 0 -88 -16l41 166q-137 10 -231 61t-150 147t-80 225.5t-24 309.5z" />
<glyph unicode="&#xc8;" horiz-adv-x="1144" d="M115 0v1483h970v-264h-665v-340h536v-265h-536v-350h665v-264h-970zM268 1948h324l135 -365h-213z" />
<glyph unicode="&#xc9;" horiz-adv-x="1144" d="M115 0v1483h970v-264h-665v-340h536v-265h-536v-350h665v-264h-970zM483 1583l133 365h326l-248 -365h-211z" />
<glyph unicode="&#xca;" horiz-adv-x="1144" d="M115 0v1483h970v-264h-665v-340h536v-265h-536v-350h665v-264h-970zM270 1583l191 365h278l189 -365h-203l-125 209l-127 -209h-203z" />
<glyph unicode="&#xcb;" horiz-adv-x="1144" d="M115 0v1483h970v-264h-665v-340h536v-265h-536v-350h665v-264h-970zM225 1716q0 59 41 99t101 40q59 0 99 -40.5t40 -98.5t-40 -98.5t-99 -40.5q-60 0 -101 40t-41 99zM696 1716q0 58 40.5 98.5t99.5 40.5t100 -40.5t41 -98.5t-41 -98.5t-100 -40.5t-99.5 40.5 t-40.5 98.5z" />
<glyph unicode="&#xcc;" horiz-adv-x="530" d="M-84 1948h324l135 -365h-213zM113 0v1483h305v-1483h-305z" />
<glyph unicode="&#xcd;" horiz-adv-x="530" d="M113 0v1483h305v-1483h-305zM160 1583l133 365h325l-247 -365h-211z" />
<glyph unicode="&#xce;" horiz-adv-x="530" d="M-66 1583l191 365h278l189 -365h-203l-125 209l-127 -209h-203zM113 0v1483h305v-1483h-305z" />
<glyph unicode="&#xcf;" horiz-adv-x="530" d="M-111 1716q0 59 41 99t101 40q59 0 99 -40.5t40 -98.5t-40 -98.5t-99 -40.5q-60 0 -101 40t-41 99zM113 0v1483h305v-1483h-305zM360 1716q0 58 40.5 98.5t99.5 40.5t100 -40.5t41 -98.5t-41 -98.5t-100 -40.5t-99.5 40.5t-40.5 98.5z" />
<glyph unicode="&#xd0;" horiz-adv-x="1347" d="M25 631v241h137v611h422q200 0 361 -93.5t254 -266t93 -392.5q0 -165 -54 -303t-148.5 -231.5t-225 -145t-280.5 -51.5h-422v631h-137zM467 264h100q191 0 303.5 125t112.5 342q0 219 -114 352.5t-302 133.5h-100v-345h192v-241h-192v-367z" />
<glyph unicode="&#xd1;" horiz-adv-x="1351" d="M115 0v1483h221l596 -905v905h305v-1483h-276l-541 858v-858h-305zM287 1608q0 46 13.5 88t40.5 78t74.5 57.5t110.5 21.5q44 0 90 -17.5t78 -38.5t72 -38.5t74 -17.5q54 0 82 31.5t28 60.5h162q0 -35 -13 -74.5t-41 -82.5t-83.5 -71t-128.5 -28q-47 0 -93 17.5t-76 39 t-69.5 39t-75.5 17.5q-42 0 -64 -24.5t-22 -57.5h-159z" />
<glyph unicode="&#xd2;" horiz-adv-x="1275" d="M68 733q0 395 137.5 580.5t433.5 185.5q295 0 433 -185.5t138 -580.5q0 -393 -137.5 -571t-433.5 -178q-297 0 -434 178t-137 571zM299 1948h324l135 -365h-213zM375 733q0 -251 63 -364t201 -113q137 0 199.5 113t62.5 364q0 258 -62.5 376t-199.5 118q-138 0 -201 -118 t-63 -376z" />
<glyph unicode="&#xd3;" horiz-adv-x="1275" d="M68 733q0 395 137.5 580.5t433.5 185.5q295 0 433 -185.5t138 -580.5q0 -393 -137.5 -571t-433.5 -178q-297 0 -434 178t-137 571zM375 733q0 -251 63 -364t201 -113q137 0 199.5 113t62.5 364q0 258 -62.5 376t-199.5 118q-138 0 -201 -118t-63 -376zM522 1583l133 365 h326l-248 -365h-211z" />
<glyph unicode="&#xd4;" horiz-adv-x="1275" d="M68 733q0 395 137.5 580.5t433.5 185.5q295 0 433 -185.5t138 -580.5q0 -393 -137.5 -571t-433.5 -178q-297 0 -434 178t-137 571zM307 1583l191 365h278l189 -365h-203l-125 209l-127 -209h-203zM375 733q0 -251 63 -364t201 -113q137 0 199.5 113t62.5 364 q0 258 -62.5 376t-199.5 118q-138 0 -201 -118t-63 -376z" />
<glyph unicode="&#xd5;" horiz-adv-x="1275" d="M68 733q0 395 137.5 580.5t433.5 185.5q295 0 433 -185.5t138 -580.5q0 -393 -137.5 -571t-433.5 -178q-297 0 -434 178t-137 571zM227 1608q0 46 13.5 88t41 78t75 57.5t110.5 21.5q55 0 112 -28t108 -56t93 -28q54 0 82.5 32t28.5 60h162q0 -27 -7.5 -57.5t-27 -66.5 t-48 -65t-76.5 -48t-108 -19q-47 0 -93 17.5t-76 39t-69 39t-75 17.5q-42 0 -64 -24.5t-22 -57.5h-160zM375 733q0 -251 63 -364t201 -113q137 0 199.5 113t62.5 364q0 258 -62.5 376t-199.5 118q-138 0 -201 -118t-63 -376z" />
<glyph unicode="&#xd6;" horiz-adv-x="1275" d="M68 733q0 395 137.5 580.5t433.5 185.5q295 0 433 -185.5t138 -580.5q0 -393 -137.5 -571t-433.5 -178q-297 0 -434 178t-137 571zM262 1716q0 59 40.5 99t100.5 40q59 0 99.5 -40.5t40.5 -98.5t-40.5 -98.5t-99.5 -40.5q-60 0 -100.5 40t-40.5 99zM375 733 q0 -251 63 -364t201 -113q137 0 199.5 113t62.5 364q0 258 -62.5 376t-199.5 118q-138 0 -201 -118t-63 -376zM733 1716q0 58 40.5 98.5t98.5 40.5q59 0 100.5 -40.5t41.5 -98.5t-41.5 -98.5t-100.5 -40.5q-58 0 -98.5 40.5t-40.5 98.5z" />
<glyph unicode="&#xd7;" horiz-adv-x="1243" d="M66 410l366 362l-366 365l182 194l373 -370l374 370l183 -194l-367 -365l367 -362l-183 -195l-374 371l-373 -371z" />
<glyph unicode="&#xd8;" horiz-adv-x="1275" d="M57 0l123 197q-112 177 -112 536q0 395 137.5 580.5t433.5 185.5q179 0 305 -72l57 95h220l-140 -224q129 -188 129 -565q0 -393 -137.5 -571t-433.5 -178q-204 0 -328 79l-39 -63h-215zM375 733q0 -134 14 -219l408 651q-62 62 -158 62q-138 0 -201 -118t-63 -376z M463 330q62 -74 176 -74q137 0 199.5 113t62.5 364q0 152 -22 262z" />
<glyph unicode="&#xd9;" horiz-adv-x="1292" d="M104 524v959h306v-930q0 -137 58.5 -217t176.5 -80q119 0 178.5 80t59.5 217v930h307v-959q0 -127 -29 -223.5t-92 -169t-169.5 -110t-254.5 -37.5q-149 0 -255 37.5t-168 110t-90 169t-28 223.5zM299 1948h326l133 -365h-211z" />
<glyph unicode="&#xda;" horiz-adv-x="1292" d="M104 524v959h306v-930q0 -137 58.5 -217t176.5 -80q119 0 178.5 80t59.5 217v930h307v-959q0 -127 -29 -223.5t-92 -169t-169.5 -110t-254.5 -37.5q-149 0 -255 37.5t-168 110t-90 169t-28 223.5zM541 1583l133 365h325l-247 -365h-211z" />
<glyph unicode="&#xdb;" horiz-adv-x="1292" d="M104 524v959h306v-930q0 -137 58.5 -217t176.5 -80q119 0 178.5 80t59.5 217v930h307v-959q0 -127 -29 -223.5t-92 -169t-169.5 -110t-254.5 -37.5q-149 0 -255 37.5t-168 110t-90 169t-28 223.5zM315 1583l191 365h278l189 -365h-203l-125 209l-127 -209h-203z" />
<glyph unicode="&#xdc;" horiz-adv-x="1292" d="M104 524v959h306v-930q0 -137 58.5 -217t176.5 -80q119 0 178.5 80t59.5 217v930h307v-959q0 -127 -29 -223.5t-92 -169t-169.5 -110t-254.5 -37.5q-149 0 -255 37.5t-168 110t-90 169t-28 223.5zM270 1716q0 59 41 99t101 40q58 0 98.5 -40.5t40.5 -98.5t-40.5 -98.5 t-98.5 -40.5q-60 0 -101 40t-41 99zM741 1716q0 58 40.5 98.5t99.5 40.5t100 -40.5t41 -98.5t-41 -98.5t-100 -40.5t-99.5 40.5t-40.5 98.5z" />
<glyph unicode="&#xdd;" horiz-adv-x="1196" d="M16 1483h336l256 -613l262 613h314l-434 -934v-549h-306v549zM502 1583l133 365h326l-248 -365h-211z" />
<glyph unicode="&#xde;" horiz-adv-x="1251" d="M115 2v1483h305v-273h205q135 0 237.5 -25.5t181.5 -81.5t120.5 -153.5t41.5 -234.5q0 -160 -76 -271t-206 -163t-303 -52h-201v-229h-305zM420 498h219q130 0 206.5 55t76.5 168q0 115 -80 170t-215 55h-207v-448z" />
<glyph unicode="&#xdf;" horiz-adv-x="1222" d="M102 0v1047q0 205 123 328.5t357 123.5q250 0 384 -103t134 -286q0 -245 -213 -328q131 -40 206.5 -136.5t75.5 -231.5q0 -430 -485 -430q-29 0 -61.5 3.5t-53.5 7t-22 3.5v244q1 0 16 -4t41.5 -7.5t54.5 -3.5q107 0 165.5 56.5t58.5 150.5q0 104 -71.5 152.5 t-213.5 48.5h-37v231h25q103 0 166 47.5t63 137.5q0 97 -56.5 145.5t-146.5 48.5q-107 0 -155.5 -63.5t-48.5 -161.5v-1020h-306z" />
<glyph unicode="&#xe0;" horiz-adv-x="1099" d="M63 510q0 518 404 518q53 0 99 -13.5t74 -32.5t44 -35t21 -27h8v96h239v-731q0 -38 14.5 -53t47.5 -15q10 0 21.5 2t17.5 4l6 2v-213q-47 -22 -158 -22q-92 0 -138 41.5t-46 85.5v2h-12q-5 -12 -11.5 -23t-27 -32t-46 -36t-71 -26.5t-100.5 -11.5q-180 0 -283 130.5 t-103 389.5zM145 1552h324l135 -364h-213zM338 510q0 -154 43 -224.5t129 -70.5q99 0 141.5 70.5t42.5 224.5q0 151 -43 219t-141 68q-87 0 -129.5 -66.5t-42.5 -220.5z" />
<glyph unicode="&#xe1;" horiz-adv-x="1099" d="M63 510q0 518 404 518q53 0 99 -13.5t74 -32.5t44 -35t21 -27h8v96h239v-731q0 -38 14.5 -53t47.5 -15q10 0 21.5 2t17.5 4l6 2v-213q-47 -22 -158 -22q-92 0 -138 41.5t-46 85.5v2h-12q-5 -12 -11.5 -23t-27 -32t-46 -36t-71 -26.5t-100.5 -11.5q-180 0 -283 130.5 t-103 389.5zM338 510q0 -154 43 -224.5t129 -70.5q99 0 141.5 70.5t42.5 224.5q0 151 -43 219t-141 68q-87 0 -129.5 -66.5t-42.5 -220.5zM387 1190l133 364h326l-248 -364h-211z" />
<glyph unicode="&#xe2;" horiz-adv-x="1099" d="M63 510q0 518 404 518q53 0 99 -13.5t74 -32.5t44 -35t21 -27h8v96h239v-731q0 -38 14.5 -53t47.5 -15q10 0 21.5 2t17.5 4l6 2v-213q-47 -22 -158 -22q-92 0 -138 41.5t-46 85.5v2h-12q-5 -12 -11.5 -23t-27 -32t-46 -36t-71 -26.5t-100.5 -11.5q-180 0 -283 130.5 t-103 389.5zM178 1190l191 364h278l189 -364h-203l-125 209l-127 -209h-203zM338 510q0 -154 43 -224.5t129 -70.5q99 0 141.5 70.5t42.5 224.5q0 151 -43 219t-141 68q-87 0 -129.5 -66.5t-42.5 -220.5z" />
<glyph unicode="&#xe3;" horiz-adv-x="1099" d="M63 510q0 518 404 518q53 0 99 -13.5t74 -32.5t44 -35t21 -27h8v96h239v-731q0 -38 14.5 -53t47.5 -15q10 0 21.5 2t17.5 4l6 2v-213q-47 -22 -158 -22q-92 0 -138 41.5t-46 85.5v2h-12q-5 -12 -11.5 -23t-27 -32t-46 -36t-71 -26.5t-100.5 -11.5q-180 0 -283 130.5 t-103 389.5zM82 1214q0 46 13.5 88t41 78.5t75.5 58t110 21.5q55 0 112 -28t108 -56t93 -28q54 0 82 31.5t28 60.5h162q0 -35 -13 -74.5t-41 -82.5t-83.5 -71t-128.5 -28q-60 0 -115 28t-104 56t-94 28q-42 0 -64 -24.5t-22 -57.5h-160zM338 510q0 -154 43 -224.5t129 -70.5 q99 0 141.5 70.5t42.5 224.5q0 151 -43 219t-141 68q-87 0 -129.5 -66.5t-42.5 -220.5z" />
<glyph unicode="&#xe4;" horiz-adv-x="1099" d="M63 510q0 518 404 518q53 0 99 -13.5t74 -32.5t44 -35t21 -27h8v96h239v-731q0 -38 14.5 -53t47.5 -15q10 0 21.5 2t17.5 4l6 2v-213q-47 -22 -158 -22q-92 0 -138 41.5t-46 85.5v2h-12q-5 -12 -11.5 -23t-27 -32t-46 -36t-71 -26.5t-100.5 -11.5q-180 0 -283 130.5 t-103 389.5zM117 1323q0 59 40.5 99t100.5 40q58 0 98.5 -40t40.5 -99t-40.5 -99t-98.5 -40q-60 0 -100.5 40t-40.5 99zM338 510q0 -154 43 -224.5t129 -70.5q99 0 141.5 70.5t42.5 224.5q0 151 -43 219t-141 68q-87 0 -129.5 -66.5t-42.5 -220.5zM588 1323q0 59 40 99 t99 40t100 -40.5t41 -98.5t-41 -98.5t-100 -40.5t-99 40t-40 99z" />
<glyph unicode="&#xe5;" horiz-adv-x="1099" d="M63 510q0 518 404 518q53 0 99 -13.5t74 -32.5t44 -35t21 -27h8v96h239v-731q0 -38 14.5 -53t47.5 -15q10 0 21.5 2t17.5 4l6 2v-213q-47 -22 -158 -22q-92 0 -138 41.5t-46 85.5v2h-12q-5 -12 -11.5 -23t-27 -32t-46 -36t-71 -26.5t-100.5 -11.5q-180 0 -283 130.5 t-103 389.5zM289 1386q0 86 60.5 146.5t144.5 60.5q85 0 145.5 -60.5t60.5 -146.5q0 -83 -60.5 -142.5t-145.5 -59.5q-84 0 -144.5 59.5t-60.5 142.5zM338 510q0 -154 43 -224.5t129 -70.5q99 0 141.5 70.5t42.5 224.5q0 151 -43 219t-141 68q-87 0 -129.5 -66.5 t-42.5 -220.5zM416 1386q0 -30 23.5 -52.5t54.5 -22.5q32 0 55.5 22t23.5 53q0 34 -23.5 57t-55.5 23q-31 0 -54.5 -23.5t-23.5 -56.5z" />
<glyph unicode="&#xe6;" horiz-adv-x="1667" d="M63 510q0 518 404 518q53 0 99 -13.5t74 -32.5t44 -35t21 -27h8v96h239v-37q90 49 205 49q95 0 169.5 -20t120.5 -52t76 -77t42 -90.5t12 -96.5q0 -138 -101.5 -207t-295.5 -69h-197q11 -109 55.5 -153t122.5 -44q170 0 170 127l244 -27q0 -145 -106 -237t-314 -92 q-279 0 -383 164h-6q-6 -14 -13 -26.5t-32 -40.5t-57 -47t-89 -34.5t-126 -15.5q-180 0 -283 130.5t-103 389.5zM338 510q0 -154 43 -224.5t129 -70.5q99 0 141.5 70.5t42.5 224.5q0 151 -43 219t-141 68q-87 0 -129.5 -66.5t-42.5 -220.5zM981 559h174q83 0 128.5 33.5 t45.5 91.5q0 60 -40.5 97.5t-127.5 37.5q-86 0 -129.5 -56.5t-50.5 -203.5z" />
<glyph unicode="&#xe7;" horiz-adv-x="1005" d="M61 504q0 278 113.5 401t347.5 123q101 0 178 -20.5t124 -55t76.5 -86t40.5 -106t11 -121.5l-260 -41q0 90 -40.5 144.5t-129.5 54.5t-132.5 -65.5t-43.5 -227.5q0 -153 45 -221t133 -68q91 0 129.5 48t38.5 147l258 -39q0 -76 -15.5 -135.5t-52.5 -113t-108.5 -87 t-175.5 -41.5l-18 -62q77 -16 123.5 -64t46.5 -126q0 -98 -79.5 -152.5t-185.5 -54.5q-71 0 -123.5 19t-80.5 51t-41 66.5t-13 72.5l146 23q0 -35 30.5 -60.5t88.5 -25.5q43 0 69.5 19.5t26.5 51.5q0 35 -23 57.5t-73 22.5q-57 0 -89 -16l43 178q-195 15 -290 137t-95 373z " />
<glyph unicode="&#xe8;" horiz-adv-x="1003" d="M63 498q0 279 113 404.5t348 125.5q95 0 169.5 -20t120.5 -52t76 -77t42 -90.5t12 -96.5q0 -138 -101.5 -207t-295.5 -69h-197q11 -109 55.5 -153t122.5 -44q170 0 170 127l244 -27q0 -145 -106 -237t-314 -92q-235 0 -347 118t-112 390zM180 1554h324l135 -364h-213z M348 559h174q83 0 128.5 33.5t45.5 91.5q0 60 -40.5 97.5t-127.5 37.5q-86 0 -129.5 -56.5t-50.5 -203.5z" />
<glyph unicode="&#xe9;" horiz-adv-x="1003" d="M63 498q0 279 113 404.5t348 125.5q95 0 169.5 -20t120.5 -52t76 -77t42 -90.5t12 -96.5q0 -138 -101.5 -207t-295.5 -69h-197q11 -109 55.5 -153t122.5 -44q170 0 170 127l244 -27q0 -145 -106 -237t-314 -92q-235 0 -347 118t-112 390zM348 559h174q83 0 128.5 33.5 t45.5 91.5q0 60 -40.5 97.5t-127.5 37.5q-86 0 -129.5 -56.5t-50.5 -203.5zM403 1190l134 364h325l-248 -364h-211z" />
<glyph unicode="&#xea;" horiz-adv-x="1003" d="M63 498q0 279 113 404.5t348 125.5q95 0 169.5 -20t120.5 -52t76 -77t42 -90.5t12 -96.5q0 -138 -101.5 -207t-295.5 -69h-197q11 -109 55.5 -153t122.5 -44q170 0 170 127l244 -27q0 -145 -106 -237t-314 -92q-235 0 -347 118t-112 390zM195 1190l190 364h279l188 -364 h-203l-125 209l-127 -209h-202zM348 559h174q83 0 128.5 33.5t45.5 91.5q0 60 -40.5 97.5t-127.5 37.5q-86 0 -129.5 -56.5t-50.5 -203.5z" />
<glyph unicode="&#xeb;" horiz-adv-x="1003" d="M63 498q0 279 113 404.5t348 125.5q95 0 169.5 -20t120.5 -52t76 -77t42 -90.5t12 -96.5q0 -138 -101.5 -207t-295.5 -69h-197q11 -109 55.5 -153t122.5 -44q170 0 170 127l244 -27q0 -145 -106 -237t-314 -92q-235 0 -347 118t-112 390zM150 1323q0 59 40.5 99t100.5 40 q59 0 99 -40t40 -99t-40 -99t-99 -40q-60 0 -100.5 40t-40.5 99zM348 559h174q83 0 128.5 33.5t45.5 91.5q0 60 -40.5 97.5t-127.5 37.5q-86 0 -129.5 -56.5t-50.5 -203.5zM621 1323q0 59 40.5 99t98.5 40q59 0 100 -40.5t41 -98.5t-41 -98.5t-100 -40.5q-58 0 -98.5 40 t-40.5 99z" />
<glyph unicode="&#xec;" horiz-adv-x="524" d="M-121 1554h324l135 -364h-213zM98 203v813h281v-735q0 -34 14.5 -49t46.5 -15q10 0 22 2t18 4l7 2v-213q-47 -22 -153 -22q-115 0 -175.5 53.5t-60.5 159.5z" />
<glyph unicode="&#xed;" horiz-adv-x="526" d="M98 203v813h281v-735q0 -34 14.5 -49t46.5 -15q10 0 22 2t18 4l7 2v-213q-47 -22 -153 -22q-115 0 -175.5 53.5t-60.5 159.5zM137 1190l133 364h326l-248 -364h-211z" />
<glyph unicode="&#xee;" horiz-adv-x="524" d="M-88 1190l190 364h279l188 -364h-202l-125 209l-127 -209h-203zM106 203v813h281v-735q0 -34 15 -49t47 -15q10 0 22 2t19 4l6 2v-213q-48 -22 -154 -22q-115 0 -175.5 53.5t-60.5 159.5z" />
<glyph unicode="&#xef;" horiz-adv-x="524" d="M-131 1323q0 59 40.5 99t100.5 40q59 0 99.5 -40.5t40.5 -98.5t-40.5 -98.5t-99.5 -40.5q-60 0 -100.5 40t-40.5 99zM106 203v813h281v-735q0 -34 15 -49t47 -15q10 0 22 2t19 4l6 2v-213q-48 -22 -154 -22q-115 0 -175.5 53.5t-60.5 159.5zM340 1323q0 59 40 99t99 40 t100.5 -40.5t41.5 -98.5t-41.5 -98.5t-100.5 -40.5t-99 40t-40 99z" />
<glyph unicode="&#xf0;" horiz-adv-x="1210" d="M53 457q0 142 64 245.5t168.5 154t234.5 50.5q108 0 185 -32.5t120 -79.5q-36 203 -194 348l-203 -144l-104 154l145 100q-127 62 -236 62l125 282q192 0 390 -149l141 98l100 -153l-102 -72q119 -130 188.5 -294t69.5 -339q0 -353 -134 -528.5t-423 -175.5 q-249 0 -392 132t-143 341zM375 485q0 -99 59.5 -164t159.5 -65q209 0 237 311q-19 58 -81 103t-148 45q-97 0 -162 -61.5t-65 -168.5z" />
<glyph unicode="&#xf1;" horiz-adv-x="1155" d="M39 793v213q48 22 154 22q57 0 100 -16t64.5 -41.5t31.5 -49.5t10 -47v-2h7q2 6 7.5 16.5t27.5 37.5t50.5 47.5t80 37.5t112.5 17q89 0 158 -28t110.5 -77t62.5 -111t21 -134v-397q0 -64 60 -64q11 0 23 2t18 4l6 2v-213q-48 -22 -154 -22q-114 0 -174.5 53.5 t-60.5 159.5v418q0 35 -7 64.5t-24 56.5t-50 42t-79 15q-84 0 -126 -47t-42 -115v-637h-281v737q0 34 -14.5 49t-46.5 15q-10 0 -21.5 -2t-17.5 -4zM133 1219q0 46 13.5 88t41 78t75 57.5t110.5 21.5q55 0 112 -28t108 -56t93 -28q54 0 82.5 32t28.5 60h161q0 -35 -13 -74.5 t-41 -82.5t-83.5 -71t-128.5 -28q-60 0 -115 28t-104 56t-94 28q-43 0 -64.5 -24t-21.5 -57h-160z" />
<glyph unicode="&#xf2;" horiz-adv-x="1040" d="M63 502q0 270 111 398t346 128q236 0 346.5 -128t110.5 -398q0 -269 -110 -390.5t-347 -121.5q-236 0 -346.5 122t-110.5 390zM178 1554h326l133 -364h-211zM348 502q0 -150 41 -218.5t131 -68.5t131 68.5t41 218.5q0 155 -40.5 225t-131.5 70t-131.5 -70t-40.5 -225z " />
<glyph unicode="&#xf3;" horiz-adv-x="1040" d="M63 502q0 270 111 398t346 128q236 0 346.5 -128t110.5 -398q0 -269 -110 -390.5t-347 -121.5q-236 0 -346.5 122t-110.5 390zM348 502q0 -150 41 -218.5t131 -68.5t131 68.5t41 218.5q0 155 -40.5 225t-131.5 70t-131.5 -70t-40.5 -225zM412 1190l133 364h325l-247 -364 h-211z" />
<glyph unicode="&#xf4;" horiz-adv-x="1040" d="M63 502q0 270 111 398t346 128q236 0 346.5 -128t110.5 -398q0 -269 -110 -390.5t-347 -121.5q-236 0 -346.5 122t-110.5 390zM190 1190l191 364h278l189 -364h-203l-125 209l-127 -209h-203zM348 502q0 -150 41 -218.5t131 -68.5t131 68.5t41 218.5q0 155 -40.5 225 t-131.5 70t-131.5 -70t-40.5 -225z" />
<glyph unicode="&#xf5;" horiz-adv-x="1040" d="M63 502q0 270 111 398t346 128q236 0 346.5 -128t110.5 -398q0 -269 -110 -390.5t-347 -121.5q-236 0 -346.5 122t-110.5 390zM109 1214q0 46 13.5 88t40.5 78.5t75 58t110 21.5q44 0 90 -17.5t78 -38.5t72 -38.5t74 -17.5q54 0 82 31.5t28 60.5h162q0 -35 -13 -74.5 t-41 -82.5t-83.5 -71t-128.5 -28q-47 0 -93 17.5t-76 38.5t-69.5 38.5t-75.5 17.5q-42 0 -64 -24.5t-22 -57.5h-159zM348 502q0 -150 41 -218.5t131 -68.5t131 68.5t41 218.5q0 155 -40.5 225t-131.5 70t-131.5 -70t-40.5 -225z" />
<glyph unicode="&#xf6;" horiz-adv-x="1040" d="M63 502q0 270 111 398t346 128q236 0 346.5 -128t110.5 -398q0 -269 -110 -390.5t-347 -121.5q-236 0 -346.5 122t-110.5 390zM145 1323q0 59 41 99t101 40q59 0 99 -40t40 -99t-40 -99t-99 -40q-60 0 -101 40t-41 99zM348 502q0 -150 41 -218.5t131 -68.5t131 68.5 t41 218.5q0 155 -40.5 225t-131.5 70t-131.5 -70t-40.5 -225zM616 1323q0 58 40.5 98.5t99.5 40.5t100 -40.5t41 -98.5t-41 -98.5t-100 -40.5t-99.5 40.5t-40.5 98.5z" />
<glyph unicode="&#xf7;" horiz-adv-x="1024" d="M66 588v211h895v-211h-895zM328 162q0 74 50.5 126t123.5 52q75 0 126.5 -52t51.5 -126q0 -73 -51.5 -123.5t-126.5 -50.5q-74 0 -124 50t-50 124zM328 1198q0 74 50.5 126t123.5 52q75 0 126.5 -52t51.5 -126q0 -73 -51.5 -123.5t-126.5 -50.5q-74 0 -124 50t-50 124z " />
<glyph unicode="&#xf8;" horiz-adv-x="1042" d="M43 0l107 141q-84 124 -84 361q0 270 110.5 398t345.5 128q146 0 244 -49l27 37h208l-110 -146q88 -128 88 -368q0 -269 -110 -390.5t-347 -121.5q-154 0 -248 47l-26 -37h-205zM350 502q0 -63 4 -90l256 360q-36 25 -88 25q-91 0 -131.5 -70t-40.5 -225zM428 242 q38 -27 94 -27q90 0 131 68.5t41 218.5q0 58 -6 104z" />
<glyph unicode="&#xf9;" horiz-adv-x="1130" d="M96 340v676h281v-619q0 -35 7 -64.5t24 -56.5t50 -42t79 -15q87 0 127.5 50.5t40.5 123.5v623h280v-735q0 -34 15 -49t47 -15q11 0 23 2t18 4l6 2v-213q-48 -22 -154 -22q-58 0 -101.5 16t-65.5 41t-32 49.5t-10 46.5v2h-6q-2 -6 -7.5 -16.5t-27.5 -37.5t-50 -47t-79 -37 t-112 -17q-90 0 -159.5 28t-110.5 77t-62 111t-21 134zM178 1554h324l135 -364h-213z" />
<glyph unicode="&#xfa;" horiz-adv-x="1087" d="M96 340v676h281v-619q0 -35 7 -64.5t24 -56.5t50 -42t79 -15q87 0 127.5 50.5t40.5 123.5v623h280v-735q0 -34 15 -49t47 -15q11 0 23 2t18 4l6 2v-213q-48 -22 -154 -22q-58 0 -101.5 16t-65.5 41t-32 49.5t-10 46.5v2h-6q-2 -6 -7.5 -16.5t-27.5 -37.5t-50 -47t-79 -37 t-112 -17q-90 0 -159.5 28t-110.5 77t-62 111t-21 134zM438 1190l133 364h326l-248 -364h-211z" />
<glyph unicode="&#xfb;" horiz-adv-x="1087" d="M96 340v676h281v-619q0 -35 7 -64.5t24 -56.5t50 -42t79 -15q87 0 127.5 50.5t40.5 123.5v623h280v-735q0 -34 15 -49t47 -15q11 0 23 2t18 4l6 2v-213q-48 -22 -154 -22q-58 0 -101.5 16t-65.5 41t-32 49.5t-10 46.5v2h-6q-2 -6 -7.5 -16.5t-27.5 -37.5t-50 -47t-79 -37 t-112 -17q-90 0 -159.5 28t-110.5 77t-62 111t-21 134zM209 1190l190 364h279l188 -364h-202l-125 209l-127 -209h-203z" />
<glyph unicode="&#xfc;" horiz-adv-x="1087" d="M96 340v676h281v-619q0 -35 7 -64.5t24 -56.5t50 -42t79 -15q87 0 127.5 50.5t40.5 123.5v623h280v-735q0 -34 15 -49t47 -15q11 0 23 2t18 4l6 2v-213q-48 -22 -154 -22q-58 0 -101.5 16t-65.5 41t-32 49.5t-10 46.5v2h-6q-2 -6 -7.5 -16.5t-27.5 -37.5t-50 -47t-79 -37 t-112 -17q-90 0 -159.5 28t-110.5 77t-62 111t-21 134zM166 1323q0 59 40.5 99t100.5 40q59 0 99 -40t40 -99t-40 -99t-99 -40q-60 0 -100.5 40t-40.5 99zM637 1323q0 59 40.5 99t98.5 40q59 0 100.5 -40.5t41.5 -98.5t-41.5 -98.5t-100.5 -40.5q-58 0 -98.5 40t-40.5 99z " />
<glyph unicode="&#xfd;" horiz-adv-x="1021" d="M96 340v676h260v-623q0 -188 164 -188q87 0 129.5 51t42.5 121v639h264v-1104q0 -342 -426 -342q-82 0 -148 13t-107.5 32t-72 48.5t-45.5 54.5t-23 58t-9.5 52t-1.5 43l237 37q0 -152 170 -152q93 0 135 41t42 121v188h-9q-3 -7 -8.5 -16.5t-24.5 -29t-43.5 -34.5 t-69 -26.5t-97.5 -11.5q-179 0 -269 99.5t-90 252.5zM418 1190l133 364h326l-248 -364h-211z" />
<glyph unicode="&#xfe;" horiz-adv-x="1017" d="M102 -406v1909h265v-592h10q4 12 18 28.5t40.5 38t73.5 36t105 14.5q175 0 276 -131.5t101 -390.5q0 -516 -379 -516q-54 0 -97.5 11.5t-67.5 29.5t-36.5 32.5t-17.5 26.5h-10v-496h-281zM358 502q0 -151 43.5 -219t141.5 -68q89 0 130.5 66t41.5 221t-42 225t-130 70 q-99 0 -142 -70.5t-43 -224.5z" />
<glyph unicode="&#xff;" horiz-adv-x="1021" d="M96 340v676h260v-623q0 -188 164 -188q87 0 129.5 51t42.5 121v639h264v-1104q0 -342 -426 -342q-82 0 -148 13t-107.5 32t-72 48.5t-45.5 54.5t-23 58t-9.5 52t-1.5 43l237 37q0 -152 170 -152q93 0 135 41t42 121v188h-9q-3 -7 -8.5 -16.5t-24.5 -29t-43.5 -34.5 t-69 -26.5t-97.5 -11.5q-179 0 -269 99.5t-90 252.5zM145 1323q0 59 41 99t101 40q59 0 99 -40t40 -99t-40 -99t-99 -40q-60 0 -101 40t-41 99zM616 1323q0 58 40.5 98.5t99.5 40.5t100 -40.5t41 -98.5t-41 -98.5t-100 -40.5t-99.5 40.5t-40.5 98.5z" />
<glyph unicode="&#x152;" horiz-adv-x="1933" d="M68 733q0 395 137.5 580.5t433.5 185.5q142 0 264 -84v68h971v-264h-666v-340h537v-265h-537v-350h666v-264h-971v70q-120 -86 -264 -86q-297 0 -434 178t-137 571zM375 733q0 -251 63 -364t201 -113q137 0 199.5 113t62.5 364q0 258 -62.5 376t-199.5 118 q-138 0 -201 -118t-63 -376z" />
<glyph unicode="&#x153;" horiz-adv-x="1675" d="M63 502q0 270 111 398t346 128q194 0 314 -123q120 123 321 123q95 0 169.5 -20t120.5 -52t76 -77t42 -90.5t12 -96.5q0 -138 -101.5 -207t-295.5 -69h-197q11 -109 55.5 -153t122.5 -44q170 0 170 127l244 -27q0 -145 -106 -237t-314 -92q-200 0 -319 116 q-116 -116 -314 -116q-236 0 -346.5 122t-110.5 390zM348 502q0 -150 41 -218.5t131 -68.5t131 68.5t41 218.5q0 155 -40.5 225t-131.5 70t-131.5 -70t-40.5 -225zM979 559h174q83 0 128.5 33.5t45.5 91.5q0 60 -40.5 97.5t-127.5 37.5q-86 0 -129.5 -56.5t-50.5 -203.5z " />
<glyph unicode="&#x178;" horiz-adv-x="1196" d="M16 1483h336l256 -613l262 613h314l-434 -934v-549h-306v549zM233 1716q0 59 41 99t101 40q59 0 99 -40.5t40 -98.5t-40 -98.5t-99 -40.5q-60 0 -101 40t-41 99zM705 1716q0 58 40.5 98.5t98.5 40.5q59 0 100 -40.5t41 -98.5t-41 -98.5t-100 -40.5q-58 0 -98.5 40.5 t-40.5 98.5z" />
<glyph unicode="&#x2c6;" horiz-adv-x="958" d="M143 1188l191 364h278l189 -364h-203l-125 209l-127 -209h-203z" />
<glyph unicode="&#x2dc;" horiz-adv-x="899" d="M27 1217q0 46 13.5 88t40.5 78t74.5 57.5t110.5 21.5q44 0 90 -17.5t78 -38.5t72 -38.5t74 -17.5q54 0 82 31.5t28 60.5h162q0 -35 -13 -74.5t-41 -82.5t-83.5 -71t-128.5 -28q-47 0 -93 17.5t-76 38.5t-69.5 38.5t-75.5 17.5q-43 0 -64.5 -24t-21.5 -57h-159z" />
<glyph unicode="&#x2000;" horiz-adv-x="993" />
<glyph unicode="&#x2001;" horiz-adv-x="1987" />
<glyph unicode="&#x2002;" horiz-adv-x="993" />
<glyph unicode="&#x2003;" horiz-adv-x="1987" />
<glyph unicode="&#x2004;" horiz-adv-x="662" />
<glyph unicode="&#x2005;" horiz-adv-x="496" />
<glyph unicode="&#x2006;" horiz-adv-x="331" />
<glyph unicode="&#x2007;" horiz-adv-x="331" />
<glyph unicode="&#x2008;" horiz-adv-x="248" />
<glyph unicode="&#x2009;" horiz-adv-x="397" />
<glyph unicode="&#x200a;" horiz-adv-x="110" />
<glyph unicode="&#x2010;" horiz-adv-x="1107" d="M98 520v211h912v-211h-912z" />
<glyph unicode="&#x2011;" horiz-adv-x="1107" d="M98 520v211h912v-211h-912z" />
<glyph unicode="&#x2012;" horiz-adv-x="1107" d="M98 520v211h912v-211h-912z" />
<glyph unicode="&#x2013;" horiz-adv-x="1226" d="M98 520v211h1030v-211h-1030z" />
<glyph unicode="&#x2014;" horiz-adv-x="1923" d="M98 520v211h1727v-211h-1727z" />
<glyph unicode="&#x2018;" horiz-adv-x="458" d="M59 1296v164q0 153 54.5 233.5t185.5 80.5q18 0 35.5 -3t25.5 -5l9 -3v-133q-27 10 -72 10q-51 0 -73.5 -31t-22.5 -93v-50q24 4 37 4q74 0 124 -50t50 -124t-50.5 -126t-123.5 -52q-75 0 -127 52t-52 126z" />
<glyph unicode="&#x2019;" horiz-adv-x="464" d="M51 1597q0 74 50.5 126.5t123.5 52.5q75 0 126.5 -52.5t51.5 -126.5v-163q0 -153 -54 -233.5t-185 -80.5q-18 0 -35.5 2.5t-26.5 5.5l-8 2v134q27 -11 72 -11q51 0 73.5 31.5t22.5 93.5v49q-24 -4 -37 -4q-73 0 -123.5 50.5t-50.5 123.5z" />
<glyph unicode="&#x201a;" horiz-adv-x="479" d="M59 164q0 74 50.5 126t123.5 52q75 0 127 -52t52 -126v-164q0 -153 -54.5 -233t-185.5 -80q-18 0 -35.5 2.5t-26.5 4.5l-8 3v133q27 -10 72 -10q51 0 73.5 31.5t22.5 93.5v49q-24 -4 -37 -4q-73 0 -123.5 50t-50.5 124z" />
<glyph unicode="&#x201c;" horiz-adv-x="921" d="M59 1296v164q0 153 54.5 233.5t185.5 80.5q18 0 35.5 -3t25.5 -5l9 -3v-133q-27 10 -72 10q-51 0 -73.5 -31t-22.5 -93v-50q24 4 37 4q74 0 124 -50t50 -124t-50.5 -126t-123.5 -52q-75 0 -127 52t-52 126zM524 1296v164q0 153 54.5 233.5t185.5 80.5q18 0 35.5 -3 t26.5 -5l8 -3v-133q-27 10 -72 10q-51 0 -73.5 -31t-22.5 -93v-50q24 4 36 4q74 0 124.5 -50.5t50.5 -123.5q0 -74 -51 -126t-124 -52q-75 0 -126.5 52t-51.5 126z" />
<glyph unicode="&#x201d;" horiz-adv-x="927" d="M51 1597q0 74 50.5 126.5t123.5 52.5q75 0 126.5 -52.5t51.5 -126.5v-163q0 -153 -54 -233.5t-185 -80.5q-18 0 -35.5 2.5t-26.5 5.5l-8 2v134q27 -11 72 -11q51 0 73.5 31.5t22.5 93.5v49q-24 -4 -37 -4q-73 0 -123.5 50.5t-50.5 123.5zM516 1597q0 74 50.5 126.5 t123.5 52.5q75 0 126.5 -52.5t51.5 -126.5v-163q0 -153 -54 -233.5t-185 -80.5q-18 0 -35.5 2.5t-25.5 5.5l-9 2v134q27 -11 72 -11q51 0 73.5 31.5t22.5 93.5v49q-24 -4 -37 -4q-74 0 -124 50.5t-50 123.5z" />
<glyph unicode="&#x201e;" horiz-adv-x="944" d="M59 164q0 74 50.5 126t123.5 52q75 0 127 -52t52 -126v-164q0 -153 -54.5 -233t-185.5 -80q-18 0 -35.5 2.5t-26.5 4.5l-8 3v133q27 -10 72 -10q51 0 73.5 31.5t22.5 93.5v49q-24 -4 -37 -4q-73 0 -123.5 50t-50.5 124zM522 164q0 74 50.5 126t123.5 52q75 0 126.5 -52 t51.5 -126v-164q0 -153 -54 -233t-185 -80q-18 0 -35.5 2.5t-25.5 4.5l-9 3v133q27 -10 72 -10q51 0 73.5 31.5t22.5 93.5v49q-24 -4 -37 -4q-74 0 -124 50t-50 124z" />
<glyph unicode="&#x2022;" horiz-adv-x="700" d="M111 705q0 100 69 169.5t170 69.5q100 0 171 -70t71 -169t-71 -168.5t-171 -69.5q-101 0 -170 69t-69 169z" />
<glyph unicode="&#x2026;" horiz-adv-x="1597" d="M61 172q0 78 54.5 133t132.5 55t132 -55t54 -133t-54 -132t-132 -54t-132.5 54t-54.5 132zM612 172q0 78 54.5 133t132.5 55t132 -55t54 -133t-54 -132t-132 -54t-132.5 54t-54.5 132zM1165 172q0 78 53.5 133t131.5 55t133 -55t55 -133t-55 -132t-133 -54t-131.5 54 t-53.5 132z" />
<glyph unicode="&#x202f;" horiz-adv-x="397" />
<glyph unicode="&#x205f;" horiz-adv-x="496" />
<glyph unicode="&#x20ac;" horiz-adv-x="1165" d="M59 496v170h138q-2 23 -2 71q0 45 2 68h-138v172h170q75 240 295.5 381t562.5 141v-274q-202 0 -335.5 -64.5t-194.5 -183.5h404v-172h-455q-2 -23 -2 -68q0 -48 4 -71h338v-170h-287q129 -240 528 -240v-272q-341 0 -561.5 137.5t-296.5 374.5h-170z" />
<glyph unicode="&#x2122;" horiz-adv-x="1826" d="M90 1288v195h668v-195h-219v-694h-230v694h-219zM838 594v889h190l248 -359l248 359h192v-889h-229v518l-211 -283l-211 283v-518h-227z" />
<glyph unicode="&#x25fc;" horiz-adv-x="1013" d="M0 0v1014h1014v-1014h-1014z" />
</font>
</defs>
</svg>
